<svg xmlns="http://www.w3.org/2000/svg" viewBox="0 0 1000 958"><path fill="#fdf103" d="M213 1c191.689 0 383.377 0 575.233.266.57.79.922 1.366 1.387 1.83 28.27 28.286 56.532 56.582 84.852 84.819 4.009 3.997 8.271 7.745 12.49 11.526 2.38 2.134 2.969 4.094.523 6.7-1.524 1.624-2.666 3.665-3.733 5.652-8.864 16.51-18.813 32.555-26.217 49.699-10.357 23.978-18.92 48.775-22.583 74.858-2.314 16.478-5.11 33.006-5.692 49.581-.947 26.938-.623 53.94 2.7 80.798 1.287 10.395 1.357 20.982 3.24 31.251 3.44 18.76 7.557 37.408 11.904 55.983 2.54 10.849 6.074 21.465 9.516 33.421 4.274-8.505 7.331-15.996 11.573-22.74 9.481-15.078 19.14-30.585 39.564-31.863 8.752-.548 17.799-.512 26.365 1.102 11.525 2.172 17.526 11.345 20.756 21.81 3.275 10.618 5.404 21.587 8.14 32.375 4.454 17.57 10.27 34.616 20.02 50.062 6.647 10.53 13.337 21.016 16.217 33.38.066.283 1.14.332 1.745.49 0 6.022 0 12.044-.29 18.23-4.22 4.99-7.698 10.305-12.223 14.488-3.725 3.443-8.563 5.788-13.136 8.182-6.807 3.565-13.47 6.71-11.406 16.578 2.846 13.615.265 27.035-2.959 40.216-5.539 22.653-18.726 41.191-33.729 58.3-12.796 14.593-27.109 27.877-43.794 38.038-21.78 13.265-43.538 26.664-66.05 38.6-23.115 12.257-46.865 23.417-70.82 33.958-23.867 10.503-48.246 19.862-72.556 29.324-31.997 12.454-63.482 25.983-94.114 41.547-24.573 12.486-48.233 26.381-70.4 42.762-2.486 1.837-4.363 4.498-6.523 6.777-1.067 0-2.133 0-3.298-.276-1.336-1.294-2.58-2.305-3.81-3.333-22.151-18.49-47.32-32.23-72.683-45.546-13.776-7.233-28.02-13.641-42.334-19.77-22.505-9.635-45.292-18.612-67.877-28.067-30.015-12.565-60.275-24.613-89.83-38.189-30.568-14.04-60.119-30.148-88.924-47.647-23.415-14.225-44.702-30.724-62.349-51.76-15.24-18.167-28.212-37.564-32.401-61.504-1.975-11.286-3.875-22.621-1.562-34.16 1.35-6.735-.357-9.75-6.592-13.012-3.005-1.57-5.986-3.198-8.893-4.942-8.095-4.856-15.942-9.982-19.634-19.347-.133-.335-1.188-.306-1.813-.447 0-6.022 0-12.044.322-18.224.688-.496 1.207-.764 1.398-1.182 4.144-9.05 7.393-18.643 12.546-27.073 10.192-16.674 18.112-34.137 22.757-53.11 2.916-11.907 5.588-23.894 9.07-35.637 3.192-10.769 9.635-19.531 21.091-22.212 6.954-1.628 14.406-1.44 21.638-1.494 12.458-.093 22.873 5.174 30.897 14.335 8.772 10.016 16.008 21.172 20.902 33.7.83 2.128 2.12 4.076 3.198 6.107l1.87-.005c5.109-21.286 10.642-42.481 15.188-63.887 3.37-15.87 6.051-31.942 7.941-48.053 1.8-15.344 2.858-30.848 3.022-46.294.262-24.622 1.64-49.364-2.894-73.79-3.159-17.014-5.732-34.247-10.494-50.83-9.894-34.456-24.415-67.023-44.707-96.743-2.593-3.798-1.207-5.661 1.103-7.897 3.518-3.405 7.361-6.479 10.826-9.934a43919.586 43919.586 0 0 0 84.48-84.511c.85-.854 1.24-2.167 1.846-3.266m292.5 23.123c-91.825 0-183.65.013-275.475-.056-3.2-.002-5.543.805-7.906 3.098-20.327 19.727-40.885 39.217-61.164 58.992-6.532 6.37-12.44 13.378-18.972 20.46-.276-.676-.135-.196.103.23 2.271 4.069 4.489 8.17 6.853 12.186 16.106 27.365 26.826 56.74 33.264 87.79 6.751 32.557 9.763 65.503 11.242 98.655 2.04 45.701-1.251 90.832-13.07 135.208-6.5 24.407-13.987 48.555-16.791 73.883-4.465 40.326 6.483 75.361 33.703 105.423 20.285 22.401 44.915 38.97 70.984 53.732 28.981 16.41 60.278 27.186 91.452 38.343 51.142 18.302 99.99 41.048 143.167 74.815 4.634-3.586 9.334-7.57 14.371-11.068 38.818-26.961 81.219-46.8 125.545-62.744 29.418-10.58 59.136-20.383 86.804-35.285 27.544-14.836 53.742-31.513 75.42-54.444 25.118-26.572 38.995-57.587 37.667-94.748-.834-23.323-5.805-45.853-12.312-68.109-11.031-37.726-18.083-76.06-18.829-115.48-.748-39.575 1.83-78.901 7.826-118.011 6.38-41.6 19.727-80.701 41.975-116.597 1.027-1.657 1.837-3.45 3.056-5.766-1.384-1.118-2.76-2.072-3.954-3.218-25.6-24.58-51.216-49.145-76.704-73.84-2.61-2.528-5.166-3.527-8.779-3.523-89.492.095-178.984.074-269.476.074m353.885 748.804c1.108-.74 2.225-1.468 3.324-2.224 24.095-16.578 47.047-34.47 65.532-57.438 10.211-12.689 18.257-26.602 23.454-42.1 9.72-28.98 5.548-55.879-12.522-80.435-6.505-8.84-14.087-16.884-20.723-25.636-10.47-13.807-21.059-27.756-25.6-44.817-3.41-12.812-5.51-26.06 4.205-37.553 3.533-4.18 7.437-8.1 11.52-11.748 4.182-3.736 6.727-3.043 9.339 1.876 3.98 7.498 7.862 15.05 11.964 22.483 3.286 5.955 6.561 6.396 10.27.587 4.178-6.542 7.32-13.752 10.785-20.734.562-1.133.692-2.6.642-3.898-.63-16.418-12.421-29.235-28.676-31.62-10.39-1.524-19.37.877-27.219 8.006-16.38 14.88-25.884 34.016-33.905 54.099-.342.856-.298 1.953-.162 2.899 3.524 24.56.188 48.512-6.844 72.019-8.461 28.282-23.386 52.289-46.664 71.092-26.2 21.163-54.293 39.348-84.951 53.012-25.79 11.493-52.532 20.847-78.84 31.176-38.506 15.119-76.238 31.87-110.104 55.99-11.85 8.439-22.593 18.431-34.12 27.944-12.38-14.063-27.839-25.823-44.392-36.199-39.44-24.72-82.01-42.673-125.84-57.833-50.978-17.63-98.335-41.974-139.353-77.298-40.178-34.6-52.467-80.69-50.887-131.623.227-7.33-.22-13.778-3.227-20.574-7.084-16.006-15.85-30.7-28.327-43.139-10.222-10.192-22.155-12.118-35.446-8.182-12.374 3.665-23.422 18.121-22.008 30.854 1.111 10 6.431 18.824 13.36 26.286 3.044 3.28 5.687 1.667 7.497-1.687 4.348-8.057 8.598-16.166 12.933-24.23 2.207-4.107 4.819-4.874 8.367-1.838 4.034 3.45 7.734 7.32 11.364 11.207 5.915 6.333 7.85 14.03 7.545 22.557-.433 12.09-3.331 23.553-9.998 33.578-8.555 12.865-17.824 25.258-26.926 37.753-4.996 6.858-10.734 13.212-15.341 20.31-9.932 15.303-15.523 32.011-14.026 50.554 1.72 21.295 9.55 40.336 21.614 57.772 16.363 23.648 38.067 41.752 60.956 58.61 33.208 24.46 70.34 42.016 107.613 58.827 31.187 14.066 63.785 25.005 95.772 37.296 54.55 20.96 106.813 46.426 155.502 78.927 4.818 3.216 9.473 6.675 14.27 10.068 24.085-18.144 49.965-32.861 76.25-46.956 47.679-25.568 98.217-44.335 148.846-62.885 46.434-17.012 90.23-39.375 133.177-65.135m116.481-229.3-22.102-49.417c-12.357 17.232-26.877 30.876-51.89 20.08.693 4.582 1.005 8.566 2.889 11.562 7.15 11.373 14.213 22.886 22.42 33.487 11.292 14.59 24.449 27.801 31.24 45.465 1.38 3.588 4.506 4.303 7.4 2.866 6.365-3.16 13.046-6.153 18.504-10.566 9.584-7.75 11.376-17.666 5.799-28.607-4.225-8.286-9.243-16.169-14.26-24.87m-892.525-25.76c-17.598.301-26.142-12.933-36.313-24.687-1.116 3.231-2.205 6.004-3.034 8.852-5.2 17.847-12.746 34.584-22.98 50.146-3.555 5.404-6.689 11.135-9.497 16.966-4.869 10.107-3.634 19.396 4.924 26.699 5.811 4.959 13.072 8.326 19.96 11.868 3.228 1.66 5.925.02 7.535-3.54 2.257-4.99 4.334-10.225 7.531-14.592 7.658-10.46 16.26-20.231 23.852-30.735 7.766-10.745 14.977-21.91 21.996-33.163 1.854-2.97 2.106-6.94 3.304-11.201-6.399 1.303-11.396 2.321-17.278 3.387m6.692-35.615c-4.166 7.123-8.424 14.195-12.453 21.395-1.522 2.72-.459 4.671 2.797 4.444 4.93-.343 9.855-.898 14.738-1.65 1.328-.205 2.893-1.157 3.675-2.25 5.107-7.132.63-19.277-8.757-21.939m828.388 25.871 6.432-1.447c-.796-2.1-1.41-4.294-2.428-6.281-1.965-3.837-4.265-7.503-6.236-11.337-4.852-9.434-6.14-9.56-12.346-.945-6.188 8.59-2.629 17.625 7.71 19.447 1.956.344 3.969.358 6.868.563z"/><path fill="#132c7f" d="M506 24.123c89.992 0 179.484.02 268.976-.074 3.613-.004 6.17.995 8.779 3.523 25.488 24.695 51.105 49.26 76.704 73.84 1.193 1.146 2.57 2.1 3.954 3.218-1.22 2.316-2.029 4.109-3.056 5.766-22.248 35.896-35.595 74.996-41.975 116.597-5.997 39.11-8.574 78.436-7.826 118.011.746 39.42 7.798 77.754 18.829 115.48 6.507 22.256 11.478 44.786 12.312 68.11 1.328 37.16-12.55 68.175-37.668 94.747-21.677 22.931-47.875 39.608-75.42 54.444-27.667 14.902-57.385 24.705-86.803 35.285-44.326 15.943-86.727 35.783-125.545 62.744-5.037 3.498-9.737 7.482-14.371 11.068-43.177-33.767-92.025-56.513-143.167-74.815-31.174-11.157-62.47-21.933-91.452-38.343-26.07-14.761-50.7-31.33-70.984-53.732-27.22-30.062-38.168-65.097-33.703-105.423 2.804-25.328 10.29-49.476 16.79-73.883 11.82-44.376 15.11-89.507 13.071-135.208-1.48-33.152-4.49-66.098-11.242-98.654-6.438-31.051-17.158-60.426-33.264-87.791-2.364-4.016-4.582-8.117-6.853-12.187-.238-.425-.379-.905-.103-.23 6.532-7.081 12.44-14.09 18.972-20.459 20.28-19.775 40.837-39.265 61.164-58.992 2.363-2.293 4.706-3.1 7.906-3.098 91.825.07 183.65.056 275.975.056m-5.033 286.815s-.043-.008.58-.37c6.448-20.335 12.928-40.66 19.323-61.011 1.531-4.875 2.783-9.838 4.977-14.774 31.032-4.89 62.06-9.81 93.098-14.662 22.003-3.44 44.02-6.79 66.797-10.02l5.387-1.207c-16.207-3.258-32.282-5.62-48.332-8.135-22.454-3.518-44.892-7.138-67.334-10.734-16.705-2.678-33.405-5.387-50.362-8.823-.386-1.27-.757-2.545-1.16-3.81-6.942-21.811-13.887-43.622-20.816-66.157-.664-1.708-1.329-3.416-2.641-4.808-6.49 20.533-13.005 41.057-19.451 61.603-1.484 4.73-2.73 9.534-4.894 14.245l-163.661 25.751.082.598c.805.128 1.61.256 2.876.856 1.21-.117 2.42-.233 4.247-.458.414.044.827.089 1.645.776 4.342.841 8.665 1.804 13.03 2.505 24.532 3.94 49.078 7.8 73.614 11.719 22.9 3.657 45.793 7.353 68.921 11.782 7.398 23.398 14.797 46.795 22.15 70.901.384 1.362.768 2.723 1.121 4.537.259-.112.517-.224.803-.304M765.04 652.536c12.473-10.484 25.672-20.23 37.246-31.625 17.136-16.872 28.882-37.268 34.35-60.982.93-4.026.83-6.912-3.32-9.55-9.825-6.248-19.216-13.18-28.825-19.772-3.517-2.414-7.156-4.651-10.888-7.065l17.869-29.286-64.063-34.169-14.106 30.683-63.646-24.428 10.063-32.376-70.416-17.524-6.337 33.336-67.635-8.232 1.898-33.63h-72.476l1.895 33.628c-22.742 2.77-44.994 5.482-67.646 8.243l-6.377-33.605-70.468 17.46 10.158 32.693-63.595 24.448-14.405-31.202-64.127 34.158 18.235 29.847c-1.995 1.28-3.822 2.392-5.589 3.592-10.603 7.203-21.129 14.523-31.83 21.577-2.97 1.958-4.035 4.154-2.94 7.422 3.373 10.06 5.8 20.58 10.361 30.071 12.438 25.883 32.655 45.149 55.575 61.754 33.732 24.437 71.073 41.684 110.38 54.956 42.82 14.46 84.354 31.833 123.085 55.33 12.177 7.388 23.782 15.717 35.607 23.587 6.895-4.904 13.904-10.274 21.284-15.075 39.134-25.46 81.263-44.745 125.353-59.78 40.294-13.74 79.447-29.778 115.33-54.484z"/><path fill="#fcfdfa" d="M859.075 773.11c-42.637 25.577-86.433 47.94-132.867 64.952-50.629 18.55-101.167 37.317-148.846 62.885-26.285 14.095-52.165 28.812-76.25 46.956-4.797-3.393-9.452-6.852-14.27-10.068-48.689-32.501-100.952-57.966-155.502-78.927-31.987-12.29-64.585-23.23-95.772-37.296-37.272-16.811-74.405-34.367-107.613-58.826-22.889-16.859-44.593-34.963-60.956-58.611-12.063-17.436-19.895-36.477-21.614-57.772-1.497-18.543 4.094-35.25 14.026-50.553 4.607-7.099 10.345-13.453 15.341-20.311 9.102-12.495 18.371-24.888 26.926-37.753 6.667-10.025 9.565-21.487 9.998-33.578.306-8.527-1.63-16.224-7.545-22.557-3.63-3.887-7.33-7.757-11.364-11.207-3.548-3.036-6.16-2.27-8.367 1.838-4.335 8.064-8.585 16.173-12.933 24.23-1.81 3.354-4.453 4.966-7.498 1.687-6.928-7.462-12.248-16.286-13.359-26.286-1.414-12.733 9.634-27.19 22.008-30.854 13.29-3.936 25.224-2.01 35.446 8.182 12.477 12.44 21.243 27.133 28.327 43.139 3.007 6.796 3.454 13.245 3.227 20.574-1.58 50.933 10.71 97.022 50.887 131.623 41.018 35.324 88.375 59.667 139.352 77.298 43.832 15.16 86.401 33.113 125.84 57.833 16.554 10.376 32.014 22.136 44.393 36.199 11.527-9.513 22.27-19.505 34.12-27.944 33.866-24.12 71.598-40.871 110.103-55.99 26.31-10.33 53.051-19.683 78.84-31.176 30.659-13.664 58.752-31.849 84.952-53.012 23.278-18.803 38.203-42.81 46.664-71.092 7.032-23.507 10.368-47.459 6.844-72.02-.136-.945-.18-2.042.162-2.898 8.02-20.083 17.525-39.22 33.905-54.099 7.848-7.129 16.83-9.53 27.22-8.006 16.254 2.385 28.046 15.202 28.675 31.62.05 1.298-.08 2.765-.642 3.898-3.465 6.982-6.607 14.192-10.784 20.734-3.71 5.81-6.985 5.368-10.271-.587-4.102-7.432-7.983-14.985-11.964-22.483-2.612-4.919-5.157-5.612-9.338-1.876-4.084 3.648-7.988 7.567-11.521 11.748-9.715 11.494-7.616 24.741-4.205 37.553 4.541 17.061 15.13 31.01 25.6 44.817 6.636 8.752 14.218 16.795 20.723 25.636 18.07 24.556 22.242 51.456 12.522 80.436-5.197 15.497-13.243 29.41-23.454 42.099-18.485 22.969-41.437 40.86-65.532 57.438-1.099.756-2.216 1.483-3.634 2.407m-726.906-67.933-12.726 6.258 8.258 5.89c2.214-4.019 4.243-7.703 6.892-11.631 5.526-4.948 10.984-9.977 16.643-14.768.965-.816 2.791-.616 3.885-.267l-24.046 28.759 1.056 1.319c7.618-5.259 15.235-10.518 23.52-15.941 4.105-2.781 8.173-5.623 12.351-8.29.793-.506 2.025-.322 2.847.187-7.781 7.001-15.524 14.047-23.368 20.977-2.44 2.155-4.51 5.635-8.814 3.279-.366-.201-1.623 1.224-2.81 2.168 3.343 2.388 6.248 4.562 9.275 6.55.652.428 1.928.518 2.578.156.587-.328.738-1.476 1.032-2.281.622-1.706.713-3.965 1.893-5.05 10.515-9.675 21.213-19.152 31.879-28.663 2.13-1.9 3.919-4.735 7.605-2.65.462.262 1.85-1.114 3.24-2.008-3.377-2.403-6.066-4.319-9.168-6.528-2.521 2.055-5.023 4.093-7.487 6.22 0 0-.092-.036-.768-.17-.925.658-1.85 1.315-3.383 2.15-5.85 4.058-11.7 8.118-18.06 12.263-.307.154-.615.309-1.344.04-.144-.139-.287-.277-.202-1.05l21.83-26.17c-2.775-1.962-4.985-3.708-7.395-5.112-.68-.396-2.059.007-2.886.462-.332.183-.1 1.501-.018 2.291.082.779.3 1.543-.04 2.52-.439.539-.877 1.077-1.918 1.942-2.056 1.911-4.112 3.822-6.75 5.969-7.656 6.969-15.312 13.937-23.601 21.18m.495-49.212c-9.674 7.273-19.347 14.546-29.776 21.997l-10.674 2.997 6.95 8.235c2.172-3.757 4.017-6.948 6.489-10.397 7.529-5.663 15.02-11.378 22.632-16.926.989-.721 2.602-.585 3.586-.255l-30.392 29.976 1.12 1.323c8.132-4.642 16.265-9.284 25.102-14.015 4.43-2.39 8.86-4.78 13.867-6.815-.024.446.131 1.129-.099 1.303-9.53 7.217-19.075 14.416-28.698 21.508-.72.53-2.03.285-3.068.353-1.441.095-2.885.144-5.287.258l8.989 10.773c1.054-1.136 2.75-2.56 2.578-2.839-2.306-3.76 1.146-4.687 3.007-6.103a3339.236 3339.236 0 0 1 34.677-26.005c2.025-1.498 3.904-4.488 7.173-1.62.353.308 2.071-.94 3.518-1.642l-7.09-8.464c-3.317 2.266-6.48 4.427-9.708 6.638 0 0-.06.075-1.387.069-.368.245-.737.49-1.554.71-.929.625-1.858 1.248-3.331 1.953-.436.32-.871.638-2.018 1.047-4.487 2.623-8.975 5.245-14.142 7.892l-1.486-.109 26.074-27.323-6.156-7.193c-2.256 3.427-4.239 6.438-6.716 9.558-.34.35-.68.702-1.638 1.268-.639.578-1.278 1.155-2.542 1.848m-10.51-35.767c-.13-.142-.258-.284-.293-1.181 2.055-6.873-.433-10.617-7.557-11.004-2.634-.143-5.38-.076-7.937.504-13.295 3.02-24.89 9.358-34.54 18.955-2.648 2.634-4.814 5.993-6.394 9.395-1.53 3.297-1.303 6.936 2.212 9.354 4.797 3.3 19.206.395 23.372-5.189-2.558.89-4.48 1.757-6.494 2.214-3.212.73-6.496 1.7-9.73 1.636-4.682-.093-6.286-3.63-3.823-7.633.774-1.257 1.754-2.468 2.879-3.415 10.406-8.763 21.943-15.623 34.856-19.98 3.36-1.134 7.806-2.925 9.998.915 2.144 3.756-1.519 6.794-4.095 9.302-3.038 2.959-6.425 5.56-9.66 8.315l.83 1.278 21.215-12.59-.413-1.095c-1.362.228-2.725.455-4.426.219m163.794 126.047-23.495-12.658-12.698 19.243 1.11.82c5.495-4.245 8.182-12.486 17.358-13.106-.496 1.743-.553 2.61-.957 3.262-8.256 13.296-16.507 26.597-24.933 39.785-.617.966-2.568 1.073-3.892 1.597-1.252.496-2.494 1.017-4.808 1.962l14.241 7.68 1.534-.69-2.112-6.269c8.862-13.915 17.683-28.77 27.889-42.826 4.178 7.678-2.118 13.37-2.586 20.107 2.831-3.543 4.992-7.375 7.397-11.048a10.711 10.711 0 0 1 4.53-3.858c.166.966.668 2.017.448 2.885-3.822 15.092-6.133 30.761-15.873 43.662-.907 1.202-3.033 1.479-4.584 2.204-1.179.55-2.343 1.132-3.514 1.7l.338 1.294c5.209.947 9.018 7.104 15.58 4.125-3.686-2.128-3.132-4.233-1.58-7.293 5.809-11.456 13.924-21.04 23.125-29.817 3.175-3.028 5.55-7.214 10.84-7.227.6-.001 1.194-1.65 2.008-2.86l-11.152-5.557c3.5 13.382-8.514 16.426-13.784 24.044.985-6.048 2.37-11.85 3.953-17.599.709-2.572.89-5.923 5.305-4.726 1.035.28 2.408-.681 3.625-1.07l-1.6-2.025c-3.746-1.739-7.491-3.478-11.713-5.74m569.424-62.816c-2.081-2.356-3.96-4.94-6.297-7.01-2.698-2.39-6.039-3.027-9.207-.876-3.85 2.612-7.533 5.476-11.192 8.353-.587.46-1.078 1.683-.879 2.327.211.685 1.625 1.712 1.949 1.538 3.524-1.892 4 1.352 5.001 3.063a2995.208 2995.208 0 0 1 21.146 36.732c1.353 2.388 4.204 4.822.737 7.904-.326.29.78 2.188 1.356 3.692 3.514-2.617 6.635-4.783 9.537-7.21.762-.638.844-2.087 1.239-3.163-.903-.255-1.828-.448-2.701-.778-1.203-.455-2.902-.68-3.459-1.58-3.496-5.652-6.799-11.428-9.986-17.262-.464-.85.034-2.225.086-3.357 1.204.127 2.834-.197 3.534.465 2.157 2.037 4.031 4.394 5.883 6.731 3.093 3.904 5.913 8.042 9.227 11.742.937 1.045 3.407 1.551 4.774 1.098.994-.329 2.095-2.814 1.82-4.04-.895-3.979-2.4-7.82-3.67-11.714l-1.56.54c.605 1.968 1.21 3.935 1.359 6.315-.146.144-.292.288-1.018.087-5.185-5.739-8.647-13.293-16.958-15.787 2.956-4.836 2.43-9.62.634-14.485-.45-1.221-.539-2.576-.065-3.933 5.757 6.192 11.068 12.902 17.434 18.386 4 3.444 9.363 5.8 14.507 7.302 7.755 2.266 13.088-3.319 10.544-10.955-1.59-4.775-4.69-9.057-7.236-13.49-.344-.599-1.412-.782-2.261-1.218 2.335 4.775 4.855 9.068 6.471 13.677.606 1.727-.272 4.854-1.621 6.112-1.112 1.036-3.964.53-5.956.189-1.391-.238-2.883-1.101-3.9-2.115-8.455-8.418-16.88-16.87-25.129-25.49-1.421-1.485-2.34-3.72-2.809-5.766-.401-1.755-.503-4.392.506-5.432 1.045-1.078 3.892-1.444 5.414-.818 3.64 1.498 6.998 3.707 10.402 5.743 1.53.915 2.9 2.1 4.341 3.164l.123-.412-17.318-17.735c1.06 2.41 1.74 3.958 2.414 5.513-8.125.394-10.452 1.573-10.771 6.532-.197 3.057.542 6.247 1.292 9.27.656 2.643 1.915 5.137 2.263 8.151m-610.145 44.186c2.78 2.06 2.673 4.097.74 6.969-7.9 11.742-15.51 23.68-23.305 35.493-1.352 2.049-2.306 5.237-6.082 3.146-.377-.208-1.803 1.48-3.102 2.596l13.488 7.614c.377-1.539 1.216-3.444.853-3.71-3.544-2.597-.866-4.705.446-6.736a4247.534 4247.534 0 0 1 22.682-34.706c1.425-2.159 2.3-5.61 6.328-3.47.363.193 1.667-1.383 2.99-2.534-3.82-2.172-7.141-3.741-10.086-5.838-2.294-1.633-3.759-.833-6.138.208 1.724-6.97-5.712-4.573-7.909-8.157-.105 14.695-11.91 22.423-17.947 33.438-.25-1.823-.009-3.435.37-5.015 2.398-10.026 4.895-20.03 7.173-30.083.348-1.536.363-4.088-.548-4.811-4.614-3.667-9.585-6.884-14.924-10.603-.67 1.757-1.124 2.882-1.53 4.023-.96 2.691-1.278 5.88-2.954 8-6.713 8.483-13.724 16.741-20.892 24.848-2.269 2.566-5.143 4.835-8.174 6.399-1.712.883-5.038.874-6.294-.243-1.194-1.062-1.433-4.431-.682-6.18 1.417-3.297 3.608-6.354 5.901-9.165 6.737-8.258 13.638-16.383 20.573-24.475 1.792-2.092 3.15-5.472 7.161-3.31.421.226 1.812-1.348 3.185-2.426l-11.907-8.004c-.783 1.323-2.036 2.862-1.803 3.136 3.26 3.834-.51 5.687-2.253 7.82-8.009 9.797-16.408 19.285-24.165 29.274-2.418 3.113-4.107 7.336-4.63 11.251-.78 5.838 4.456 9.892 10.077 8.01 3.684-1.232 7.482-3.19 10.257-5.84 5.277-5.039 9.874-10.792 14.722-16.277 4.628-5.236 9.087-10.63 13.897-15.69 1.495-1.574 3.413-3.945 6.315-1.243 2.553 2.376 2.167 4.494.444 6.996-7.365 10.69-14.487 21.558-22.17 32.014-1.82 2.476-5.495 3.57-8.264 5.38-.949.62-1.736 1.486-3.043 2.63l10.832 6.455c-.22-17.368 14.056-26.136 20.103-39.546l1.323.555-10.86 45.691 1.965.72c.909-1.278 1.838-2.543 2.724-3.837 8.178-11.95 16.346-23.908 24.523-35.86 2.465-3.603 5.29-6.557 10.59-4.907m402.13 61.583c1.469 11.585 1.197 12.023-9.43 14.501 1.026-8.668-4.493-17.4 1.285-25.823.243-.354-.243-1.21-.472-2.18-3.535 1.543-6.996 2.767-10.104 4.593-.902.53-.793 2.78-1.148 4.243 4.674.172 3.124 3.957 3.362 6.305 1.347 13.253 2.455 26.53 3.62 39.8.294 3.341 1.776 6.933-2.203 9.399-.478.296-.065 2.029-.065 3.629 3.443-1.496 6.396-2.61 9.17-4.061 1.297-.678 2.25-2.011 3.357-3.047l-3.82-3.193c-.602-6.481-1.352-13.436-1.802-20.41-.086-1.328.63-3.328 1.644-3.982 2.302-1.485 5.02-2.324 7.945-3.59.432 3.835 1.163 7.106 1.09 10.359-.138 6.106 3.556 12.63-1.746 18.283-.266.284.177 1.234.379 2.375 3.698-1.627 7.277-2.943 10.534-4.818.816-.47.596-2.74.852-4.182-4.057.515-3.03-2.797-3.216-4.692-1.35-13.755-2.538-27.526-3.708-41.297-.282-3.313-1.914-6.968 2.132-9.453.43-.264-.047-2.005-.126-3.503-3.221 1.398-5.972 2.54-8.678 3.778-4.36 1.997-4.286 1.959-.663 5.414.731.697.994 2.069 1.13 3.172.304 2.477.394 4.98.68 8.38m127.406-7.429c3.787 2.734 5.563-.03 5.851-2.914.422-4.217-.233-8.541-.429-12.82l-1.715.066.42 8.628-12.084-23.499c4.603-6.474 4.644-18.328-1.418-25.57-1.542-1.842-5.1-3.715-7.048-3.164-4.884 1.384-9.432 4.046-13.942 6.51-.466.255.23 2.634.387 4.028 3.932-1.035 3.423 2.408 3.881 4.248 3.57 14.345 6.95 28.737 10.377 43.117.637 2.673 2.06 5.411-1.338 7.541-.485.304.172 2.427.332 4.016 4.12-2.017 7.604-3.603 10.941-5.453.723-.4 1.147-1.723 1.264-2.676.062-.51-1.027-1.704-1.254-1.624-3.85 1.368-3.588-1.713-4.117-3.779-1.319-5.148-2.733-10.285-3.708-15.501-.385-2.062.293-4.322.487-6.492 1.602 1.631 3.609 3.032 4.703 4.952 1.377 2.416 1.936 5.284 2.976 7.907 1.587 4 3.283 7.955 5.434 12.48m-269.883 84.594 1.13 1.267c0-6.884.062-13.696-.074-20.503-.019-.923-.817-2.276-1.625-2.669-7.57-3.679-15.22-7.193-22.847-10.754-.313 2.053.266 3.36.903 4.638.893 1.787 2.582 3.531 2.63 5.329.418 15.818.47 31.646.825 47.466.074 3.303-.69 5.046-4.955 4.837 7.563 7.618 17.667 9.911 26.454 14.926v-24.888c-1.69 4.138-2.249 8.402-3.63 12.38-.568 1.638-3.191 3.955-4.382 3.694-2.507-.55-6.553-2.446-6.686-4.059-.678-8.263-.314-16.611-.314-25.485 6.575 4.219 4.52 11.273 6.984 17.865v-31.294c-1.504 2.544-1.809 5.185-2.658 7.638-.321.929-1.829 1.654-2.941 1.99-.39.117-1.75-1.204-1.76-1.883-.13-7.703-.083-15.409-.083-23.483 6.097 1.355 9.602 4.545 10.845 9.87.943 4.04 1.417 8.19 2.184 13.118m-151.995-88.182c-12.136 9.388-17.71 22.62-20.854 36.96-1.105 5.041-1.093 10.648-.164 15.736 1.293 7.079 7.124 9.174 13.244 5.288 2.76-1.752 5.36-4.027 7.422-6.56 7.704-9.462 12.57-20.342 14.47-32.375.66-4.183.704-8.655 0-12.821-1.318-7.791-6.102-9.895-14.118-6.228m331.532-2.659-2.401-19.282c-7.607 3.476-14.73 6.611-21.704 10.049-1.018.501-1.326 2.443-2.247 4.289l4.935-.355c1.648 16.323 3.379 32.357 4.748 48.422.171 2.014-1.62 4.17-2.398 6.299-.429 1.172-.643 2.423-1.24 4.75 8.542-3.923 15.908-7.266 23.22-10.725.747-.354 1.701-1.433 1.658-2.12-.467-7.394-1.116-14.778-1.715-22.165-1.67 5.054-1.797 10.14-2.704 15.085-1.234 6.723-3.84 8.99-10.366 9.896-.737-7.25-1.554-14.484-2.129-21.737-.095-1.202.868-2.489 1.342-3.737 1.208.926 2.96 1.608 3.508 2.83 1.097 2.444 1.536 5.184 2.246 7.802l1.399-.234-2.827-28.598-1.506-.09c-.761 4.972 1.13 10.927-4.84 15.143-.78-7.275-1.163-13.547-2.203-19.708-.803-4.754 1.853-6.318 5.467-7.317 3.847-1.064 4.974 1.936 5.917 4.577 1.111 3.111 1.798 6.373 2.67 9.57l.915-.126c.139-.574.278-1.148.255-2.518M862.98 643.533c-.688 1.328-1.583 2.6-1.975 4.01-.194.696.362 1.814.921 2.43.372.409 1.788.592 1.99.32 2.48-3.337 4.069-.421 5.623.87 11.272 9.358 22.51 18.76 33.66 28.265 2.304 1.965 6.245 3.348 3.972 7.894-.21.42 1.459 1.78 2.673 3.187 4.195-7.814 8.08-15.052 12.06-22.462l-18.46-15.866-1.014 1.033c.922 1.025 1.901 2.004 2.755 3.082 2.677 3.379 5.553 6.636 7.887 10.24 2.573 3.972 1.873 7.784-2.172 11.46l-20.514-17.247c6.6-4.364 9.589 2.948 15.712 3.198l-23.87-20.075-1.066 1.121c2.84 3.987 8.179 6.785 7.112 13.986-6.464-5.417-12.14-9.982-17.521-14.871-.919-.834-1.128-3.217-.717-4.603 1.227-4.138 4.295-4.708 7.901-3.065 2.585 1.178 5.066 2.583 7.593 3.886l.837-1.323-14.646-11.687a4578.433 4578.433 0 0 0-8.74 16.217m-782.535 15.55c-2.157 4.016-4.389 8.177-1.512 12.619 2.56 3.953 6.946 4.021 10.835 3.163 18.712-4.13 33.602-14.09 43.45-30.65 1.666-2.8 1.853-7.602.674-10.7-1.644-4.318-6.52-3.731-10.548-3.44-.984.071-1.968.32-2.923.59-16.435 4.643-29.596 13.954-39.976 28.417m766.314 82.799c.44-19.05-6.689-35.004-20.093-48.233-3.147-3.106-7.245-5.266-11.82-3.364-4.686 1.948-5.694 6.598-5.526 10.917.714 18.424 7.414 34.423 21.346 46.708 7.18 6.332 13.285 3.972 16.093-6.028M432.15 846.134l1.209-3.23c5.692 4.124 2.52 10.235 5.037 15.035l4.27-27.085-1.25-.206c-1.102 2.558-2.052 5.2-3.396 7.623-.416.749-2.014 1.367-2.87 1.17-.618-.142-1.383-1.8-1.26-2.664.971-6.83 2.14-13.631 3.29-20.709 13.388 3.593 8.516 14.516 10.498 22.63 1.445-6.332 2.399-12.625 3.178-18.94.093-.751-.56-2.038-1.22-2.37-7.046-3.533-14.163-6.925-21.862-10.646.13 1.936-.172 3.771.338 4.034 4.184 2.159 2.723 5.471 2.133 8.696-.509 2.779-.849 5.588-1.304 8.377-1.952 11.957-3.919 23.912-5.77 35.191l-4.47 1.735c.577 1.013.903 2.522 1.772 2.963 7.06 3.581 14.22 6.963 21.98 10.71l3.821-22.672c-2.858 3.892-4.402 8.048-6.435 11.95-1.411 2.708-3.89 3.256-6.848 1.977-3.002-1.298-4.396-3.002-3.636-6.533 1.152-5.355 1.826-10.812 2.794-17.036m24.999 38.114c5.45 7.557 7.996 7.798 13.8 1.012l1.926 10.413c1.64-7.41 2.178-14.686 2.87-21.949.109-1.14.615-2.622 1.456-3.243 2.653-1.958 2.893-2.775.188-4.463-3.335-2.08-6.85-3.874-11.536-6.488.711 2.523.702 4.511 1.48 4.892 3.188 1.561 2.845 4.185 2.633 6.837-.212 2.65-.124 5.435-.96 7.89-.836 2.451-2.655 4.566-4.043 6.828-1.914-2.03-4.312-3.799-5.596-6.17-1.123-2.074-1.41-4.839-1.342-7.278.285-10.3.657-20.605 1.396-30.88.259-3.584 1.39-7.19 2.669-10.58.614-1.632 2.675-4.027 3.76-3.87 1.696.247 4.054 2.118 4.49 3.741 1.584 5.896 2.503 11.973 3.633 17.988.303 1.612.467 3.249.695 4.874l1.259-.12 1.212-25.33-1.019-.25-2.468 3.535c-1.17-2.2-1.993-4.234-3.23-5.974-3.606-5.078-8.552-5.041-12.205.037-.962 1.336-1.871 2.81-2.374 4.36-5.82 17.942-6.738 35.82 1.306 54.188m82.942-61.898c-2.038 3.105-4.884 5.954-5.964 9.362-3.408 10.76-4.064 21.98-2.352 33.065 1.405 9.1 3.806 18.082 6.388 26.936.582 1.995 3.77 4.51 5.713 4.472 1.98-.039 4.282-2.654 5.742-4.654 1.313-1.796 1.85-4.242 2.428-6.48 3.171-12.275 3.07-24.762 1.31-37.148-.97-6.824-3.127-13.532-5.305-20.108-1.013-3.06-3.058-6.06-7.96-5.445m253.68-102.713c-.595-1.371-1.386-2.695-1.735-4.126-.403-1.657-1.167-4.38-.455-4.93 1.83-1.41 4.507-2.744 6.62-2.455 1.873.256 3.744 2.51 5.073 4.289 1.992 2.664 3.51 5.683 5.228 8.55l1.36-.699-8.849-19.986c-6.86 3.76-13.257 7.203-19.56 10.808-.758.433-1.322 1.732-1.373 2.662-.027.513 1.453 1.703 1.825 1.55 3.576-1.475 3.941 1.518 4.78 3.449 5.685 13.103 11.32 26.228 16.839 39.401 1.12 2.672 3.741 5.589-.226 8.379-.41.289.365 2.264.686 3.963 4.049-2.232 7.577-4.041 10.936-6.124.827-.513 1.102-1.917 1.63-2.911-.894-.388-1.801-.747-2.679-1.169-1.176-.565-2.964-.887-3.39-1.817-3.216-7.022-6.163-14.168-9.512-22.02 7.919-1.254 8.02 6.206 12.598 8.464l-11.236-26.242-1.228.517c-.18 4.518 4.167 9.411-1.398 14.214-2.027-4.655-3.852-8.85-5.934-13.767M557 820.983c.772 1.262 2.16 2.494 2.224 3.791a2645.265 2645.265 0 0 1 1.87 45.899c.126 3.925 1.803 8.361-2.833 11.304-.569.36-.078 2.39-.078 4.113 3.977-2.001 7.594-3.671 11.032-5.653.885-.51 1.342-1.963 1.665-3.078.06-.21-1.61-.724-2.18-1.366-.761-.857-1.688-1.949-1.75-2.987a627.341 627.341 0 0 1-.924-22.448c-.026-1.112.868-2.246 1.336-3.37 1.071.818 2.744 1.435 3.098 2.493.98 2.929 1.41 6.042 2.158 9.555v-31.84l-1.292-.05c-1.497 5.21.316 11.595-5.74 15.467-.757-7.849-1.13-15.657-.49-23.381.156-1.88 3.467-3.812 5.714-4.972.511-.264 3.098 2.364 3.886 4.054.992 2.126 1.118 4.657 1.618 7.012.187-.035.375-.07.562-.107v-19.057c-6.998 3.508-13.437 6.562-19.641 10.035-.925.518-.747 3.007-.235 4.586m57.38-29.608c1.857 2.246 4.18 4.26 5.448 6.8 1.44 2.882 1.936 6.237 2.842 9.386l1.495-.35-3.277-23.377c-3.23 1.53-6.058 2.825-8.846 4.2-4.762 2.349-11.576 3.608-13.677 7.438-2.205 4.02.077 10.526.479 15.94.176 2.376.554 4.739.84 7.108 2.065-7.73.078-16.059 5.9-22.58 1.024 1.18 1.357 2.25 1.485 3.341 1.704 14.53 3.37 29.064 5.069 43.593.345 2.954 1.293 5.948-2.493 7.715-.638.297-.458 2.346-.707 3.902 12.414-4.332 14.432-5.844 13.707-9.938-1.203.12-2.405.24-4.071.408-1.918-17.227-3.804-34.057-5.619-50.894-.076-.707.51-1.485 1.425-2.692m112.693.19c3.538 4.492 1.302 9.207-.504 14.639 4.356-1.844 7.587-3.128 10.743-4.575 2.433-1.115 2.346-2.702.667-4.583-1.436-1.61-3.17-3.183-3.958-5.106-6.177-15.08-12.153-30.243-18.209-45.373-.7-1.749-1.51-3.454-2.27-5.18l-1.52.276c-1.16 23.505 3.04 47.03-.122 71.054 3.149-1.392 5.499-2.27 7.667-3.476.773-.429 1.42-1.616 1.52-2.524.061-.558-1.001-1.264-1.6-1.862-1.1-1.098-2.734-1.962-3.263-3.279-3.311-8.232-1.353-12.697 6.733-16.003.433-.177.936-.183 1.534-.292a258.2 258.2 0 0 1 2.582 6.284M313.32 793.9c1.86-2.956 3.482-6.101 5.636-8.825 3.59-4.542 7.307-9.035 11.436-13.073 1.335-1.306 4.803-2.163 6.073-1.34 1.39.901 2.185 4.152 1.791 6.083-.886 4.345-2.662 8.51-4.088 12.743-.426 1.266-.893 2.517-1.342 3.776l1.36.638 12.485-20.714-.943-.687-4.296 2.692c-1.015-9.755-5.777-12.315-13.956-7.872-2.03 1.103-4.022 2.424-5.708 3.993-9.46 8.798-16.26 19.353-19.716 31.821-1 3.605-1.22 7.584-.974 11.337.338 5.176 4.323 8.17 8.74 7.322 5.404-1.037 13.248-8.225 15.272-14.607-3.494 3.304-6.134 6.521-9.46 8.68-2.042 1.325-5.965 2.216-7.526 1.127-1.598-1.114-2.382-5.204-1.694-7.425 1.608-5.186 4.311-10.033 6.91-15.67m99.748 9.177c2.863-1.77 2.353-3.195-.454-4.371-3.656-1.532-7.314-3.055-12.594-5.259 1.034 2.564 1.566 3.907 2.116 5.242.52 1.263 1.693 2.631 1.492 3.76a2600.913 2600.913 0 0 1-8.751 46.546c-.18.915-1.802 1.56-2.776 2.3-.657.5-1.965 1.034-1.913 1.4.135.944.65 2.295 1.39 2.618 7.112 3.105 14.302 6.03 21.973 9.215l4.767-23.035-1.323-.29c-1.86 4.18-3.552 8.447-5.64 12.51-1.365 2.657-3.307 4.24-6.906 2.89-3.512-1.315-3.945-3.424-3.352-6.562 2.745-14.534 5.366-29.092 8.23-43.602.261-1.322 1.93-2.366 3.741-3.362m-48.55 42.889 18.268 6.303 6.274-22.786-1.455-.54c-.837 1.837-1.547 3.747-2.54 5.497-1.87 3.298-3.483 6.911-6.06 9.56-1.14 1.172-4.453.683-6.606.19-.863-.198-2.014-2.612-1.754-3.717A2211.038 2211.038 0 0 1 381.88 795c.298-1.153 2.015-1.96 3.114-2.877.712-.596 1.5-1.101 2.254-1.647-.612-.814-1.057-2.049-1.864-2.369-3.66-1.449-7.424-2.64-12.154-4.27.322 1.97.418 3.2.737 4.368.497 1.822 1.966 3.793 1.6 5.37-3.377 14.562-6.99 29.072-10.772 43.534-.36 1.378-2.328 2.346-3.572 3.48-.624.568-1.741 1.014-1.834 1.635-.103.693.52 1.782 1.156 2.23.92.647 2.135.871 3.973 1.513m376.967-62.86c2.719 5.377.705 10.85-1.21 17.062 5.046-2.3 8.573-3.784 11.957-5.544.753-.392 1.234-1.717 1.386-2.684.077-.49-1.02-1.713-1.31-1.63-4.374 1.237-3.659-2.535-4.102-4.466-3.235-14.085-6.264-28.217-9.327-42.34-.667-3.074-2.662-6.388 1.61-8.708.431-.234-.112-2.262-.243-3.99-4.225 1.942-7.853 3.494-11.345 5.307-.748.388-1.292 1.7-1.367 2.632-.039.47 1.2 1.02 1.83 1.571 1.138.997 2.981 1.852 3.263 3.06 3.014 12.942 5.78 25.94 8.858 39.73z"/><path fill="#fefffa" d="M976.042 543.947c4.841 8.381 9.86 16.264 14.084 24.55 5.577 10.94 3.785 20.857-5.8 28.607-5.457 4.413-12.138 7.405-18.503 10.566-2.894 1.437-6.02.722-7.4-2.866-6.791-17.664-19.948-30.876-31.24-45.465-8.207-10.6-15.27-22.114-22.42-33.487-1.884-2.996-2.196-6.98-2.89-11.561 25.014 10.795 39.534-2.849 51.89-20.08a33113.343 33113.343 0 0 0 22.28 49.736zM83.783 517.843c5.44-1.042 10.437-2.06 16.836-3.363-1.198 4.261-1.45 8.23-3.304 11.201-7.02 11.253-14.23 22.418-21.996 33.163-7.592 10.504-16.194 20.275-23.852 30.735-3.197 4.367-5.274 9.603-7.531 14.593-1.61 3.558-4.307 5.198-7.535 3.54-6.888-3.543-14.149-6.91-19.96-11.869-8.558-7.303-9.793-16.592-4.924-26.699 2.808-5.83 5.942-11.562 9.496-16.966 10.235-15.562 17.781-32.299 22.98-50.146.83-2.848 1.92-5.62 3.035-8.852 10.171 11.754 18.715 24.988 36.755 24.663z"/><path fill="#fefff7" d="M90.36 482.059c9.06 2.855 13.537 15 8.43 22.133-.782 1.092-2.347 2.044-3.675 2.248a178.284 178.284 0 0 1-14.738 1.651c-3.256.227-4.319-1.723-2.797-4.444 4.029-7.2 8.287-14.272 12.78-21.588zm827.604 26.045c-2.442-.186-4.455-.2-6.41-.544-10.34-1.822-13.9-10.857-7.71-19.447 6.206-8.615 7.493-8.49 12.345.945 1.971 3.834 4.27 7.5 6.236 11.337 1.018 1.987 1.632 4.18 2.428 6.28-2.144.483-4.288.966-6.889 1.429z"/><path fill="#fdf100" d="M764.749 652.747c-35.592 24.495-74.745 40.533-115.04 54.273-44.09 15.035-86.218 34.32-125.352 59.78-7.38 4.801-14.39 10.171-21.284 15.075-11.825-7.87-23.43-16.2-35.607-23.587-38.73-23.497-80.265-40.87-123.085-55.33-39.307-13.272-76.648-30.519-110.38-54.956-22.92-16.605-43.137-35.87-55.575-61.754-4.56-9.491-6.988-20.01-10.36-30.07-1.096-3.269-.031-5.465 2.939-7.423 10.701-7.054 21.227-14.374 31.83-21.577 1.767-1.2 3.594-2.313 5.589-3.592l-18.235-29.847 64.127-34.158 14.405 31.202 63.595-24.448-10.158-32.692 70.468-17.461 6.377 33.605 67.646-8.243-1.895-33.628h72.476l-1.898 33.63 67.635 8.232 6.337-33.336 70.416 17.524-10.063 32.376 63.646 24.428 14.106-30.683 64.063 34.169-17.869 29.286c3.732 2.414 7.37 4.651 10.888 7.065 9.61 6.592 19 13.524 28.826 19.771 4.15 2.639 4.248 5.525 3.32 9.551-5.469 23.714-17.215 44.11-34.35 60.982-11.575 11.396-24.774 21.141-37.538 31.836m-484.5-45.827c-3.09 3.033-6.331 5.928-9.226 9.137-2.91 3.227-1.696 7.32 2.51 8.458 1.843.498 3.963.298 5.908.04a6727.59 6727.59 0 0 0 47.993-6.53c29.842-4.18 59.675-8.428 89.516-12.62 10.375-1.457 20.726-3.321 31.155-4.088 7.771-.571 14.903 1.527 20.757 7.781 2.528 2.702 7.21 4.561 10.994 4.706 14.145.54 28.332.484 42.483.021 3.507-.115 7.958-1.676 10.214-4.168 7.567-8.358 17.004-9.314 27.017-8.085 12.052 1.479 24.01 3.697 36.037 5.399 35.108 4.968 70.228 9.847 105.346 14.74 7.915 1.103 15.82 2.427 23.777 2.99 2.355.168 5.498-1.376 7.054-3.189.83-.965-.37-4.666-1.695-6.276-2.612-3.172-5.95-5.748-9.323-9.157-3.954-8.58-7.834-17.197-11.894-25.727-2.127-4.47-3.88-9.367-6.992-13.074-14.018-16.707-28.404-33.107-42.844-49.454-1.416-1.603-4.072-2.87-6.207-2.958-16.368-.67-31.97-4.118-46.443-11.972-9.205-4.996-18.175-10.448-27.516-15.168-26.36-13.32-52.475-14.425-78.196 2.458-1.477-1.025-3.056-2.23-4.74-3.261-1.84-1.127-3.709-2.25-5.682-3.106-19.196-8.317-38.73-8.303-57.725-.248-12.494 5.298-24.186 12.506-36.17 18.982-14.64 7.911-30.332 11.555-46.863 12.33-2.285.108-5.122 1.397-6.629 3.093-13.05 14.686-26.032 29.442-38.628 44.516-4.079 4.88-7.372 10.555-10.282 16.245-4.677 9.145-8.737 18.605-13.705 28.185z"/><path fill="#f5f8f9" d="M320.924 209.155a56.677 56.677 0 0 1-1.938-.24 42.148 42.148 0 0 0-4.012.094l-2.414-.385-.082-.598c54.554-8.584 109.108-17.167 164.177-25.42 7.595 7.96 14.65 15.614 21.808 23.17.51.539 1.588 3.673 3.044.22.742.013 1.167.024 1.473.341a324.11 324.11 0 0 0-1.022 2.659c.018-.026.077-.05-.22.074-.503.728-.71 1.332-1.227 1.936-.724-.006-1.137-.012-1.408-.372-1.348-.864-2.837-1.819-4.328-1.82-56.137-.077-112.275-.068-168.413-.047-1.813 0-3.625.253-5.438.388z"/><path fill="#3e6faf" d="M501.94 209.022c.307-.793.614-1.586 1.335-2.835l22.081-24.244c16.702 2.695 33.402 5.404 50.107 8.082 22.442 3.596 44.88 7.216 67.334 10.734 16.05 2.514 32.125 4.877 48.332 8.135-1.796.402-3.591.805-5.968.734-2.378-.661-4.176-1.012-5.974-1.013-57.437-.029-114.873-.027-172.31-.006-1.646 0-3.291.27-4.937.413z"/><path fill="#fbfdfb" d="M501.958 208.996c1.628-.118 3.273-.386 4.919-.387 57.437-.021 114.873-.023 172.31.006 1.798 0 3.596.352 5.59.933-21.812 3.783-43.83 7.134-65.832 10.573-31.038 4.853-62.066 9.771-93.615 14.36-8.11-8.712-15.703-17.123-23.295-25.535 0 0-.059.024-.077.05z"/><path fill="#366aac" d="M321.126 209.476a19.546 19.546 0 0 1 5.236-.71c56.138-.02 112.276-.029 168.413.047 1.491.002 2.98.957 4.026 1.96-7.676 8.422-14.908 16.351-22.14 24.281-22.896-3.679-45.79-7.375-68.689-11.032-24.536-3.919-49.082-7.78-73.615-11.719-4.364-.7-8.687-1.664-13.231-2.827z"/><path fill="#386bad" d="M501.739 209.07c7.888 8.288 15.48 16.699 23.184 25.418-1.27 5.23-2.522 10.194-4.053 15.069-6.395 20.351-12.875 40.676-19.66 60.828-.359-1.612-.382-3.04-.338-4.926.028-31.789-.011-63.12-.051-94.453.207-.604.414-1.208.918-1.936z"/><path fill="#396bad" d="M501.188 205.993c-1.137 3.456-2.214.322-2.725-.218-7.159-7.555-14.213-15.21-21.404-23.14 1.243-5.071 2.49-9.876 3.974-14.605 6.446-20.546 12.96-41.07 19.772-61.34.34 1.949.359 3.633.3 5.78-.023 31.483.03 62.503.083 93.523z"/><path fill="#fbfdfb" d="M501.507 205.995c-.372-31.022-.425-62.042-.08-93.529.826-.48 1.254-.494 1.682-.507 6.945 21.81 13.89 43.622 20.832 65.433.403 1.265.774 2.54 1.288 4.18-7.095 8.3-14.318 16.23-21.835 24.31-.72.138-1.145.127-1.887.113zm-.997 5.011c.35 31.332.39 62.664-.067 94.467-.784.489-1.07.506-1.355.523-7.398-23.397-14.797-46.794-22.311-70.567 7.116-8.305 14.348-16.234 21.882-24.302.715-.133 1.128-.127 1.852-.12z"/><path fill="#f5f8f9" d="M503.117 111.597c-.436.375-.864.389-1.614.407-.34-1.68-.358-3.365-.374-5.472.667 1.287 1.332 2.995 1.988 5.065zm-4.052 194.753c.309-.371.594-.388 1.31-.42.453 1.415.476 2.843.524 4.636.025.364.068.372-.125.284-.193-.089-.578-.061-.578-.061-.385-1.361-.77-2.722-1.13-4.438z"/><path fill="#366aac" d="M315.205 209.244c.874-.303 1.979-.37 3.472-.276-.822.279-2.031.395-3.472.276z"/><path fill="#386bad" d="M500.18 311.015c.016-.226.401-.254.58-.181-.079.184-.337.296-.58.181z"/><path fill="#213787" d="M244.897 727.031c-4.97-1.064-7.795 1.89-10.26 5.493-8.177 11.952-16.345 23.91-24.523 35.86-.886 1.294-1.815 2.56-2.724 3.838l-1.965-.72 10.86-45.692-1.323-.555c-6.047 13.41-20.323 22.178-20.103 39.546l-10.832-6.455c1.307-1.144 2.094-2.01 3.043-2.63 2.769-1.81 6.444-2.904 8.264-5.38 7.683-10.456 14.805-21.323 22.17-32.014 1.723-2.502 2.11-4.62-.444-6.996-2.902-2.702-4.82-.331-6.315 1.242-4.81 5.062-9.269 10.455-13.897 15.691-4.848 5.485-9.445 11.238-14.722 16.278-2.775 2.65-6.573 4.607-10.257 5.84-5.62 1.88-10.857-2.173-10.077-8.01.523-3.916 2.212-8.139 4.63-11.252 7.757-9.989 16.156-19.477 24.165-29.274 1.743-2.133 5.513-3.986 2.253-7.82-.233-.274 1.02-1.813 1.803-3.136l11.907 8.004c-1.373 1.078-2.764 2.652-3.185 2.425-4.01-2.16-5.369 1.219-7.161 3.31-6.935 8.093-13.836 16.218-20.573 24.476-2.293 2.81-4.484 5.868-5.9 9.165-.752 1.749-.513 5.118.681 6.18 1.256 1.117 4.582 1.126 6.294.243 3.031-1.564 5.905-3.833 8.174-6.4 7.168-8.106 14.179-16.364 20.892-24.848 1.676-2.118 1.994-5.308 2.954-8 .406-1.14.86-2.265 1.53-4.022 5.339 3.719 10.31 6.936 14.924 10.603.91.723.896 3.275.548 4.811-2.278 10.053-4.775 20.057-7.174 30.083-.378 1.58-.619 3.192-.369 5.015 6.036-11.015 17.842-18.743 17.947-33.438 2.197 3.584 9.633 1.188 8.312 8.375.403.217.453.164.453.164z"/><path fill="#1d3485" d="M647.302 788.746c-.232-2.946-.322-5.45-.626-7.926-.136-1.103-.399-2.475-1.13-3.172-3.623-3.455-3.697-3.417.663-5.414 2.706-1.239 5.457-2.38 8.678-3.778.08 1.498.556 3.24.126 3.503-4.046 2.485-2.414 6.14-2.132 9.453 1.17 13.771 2.359 27.542 3.708 41.297.186 1.895-.84 5.207 3.216 4.692-.256 1.443-.036 3.712-.852 4.182-3.257 1.875-6.836 3.19-10.534 4.818-.202-1.14-.645-2.091-.379-2.375 5.302-5.653 1.608-12.177 1.745-18.283.074-3.253-.657-6.524-1.089-10.359-2.926 1.266-5.643 2.105-7.945 3.59-1.014.654-1.73 2.654-1.644 3.982.45 6.974 1.2 13.929 1.801 20.41l3.821 3.193c-1.108 1.036-2.06 2.37-3.356 3.047-2.775 1.452-5.728 2.565-9.171 4.06 0-1.6-.413-3.332.065-3.628 3.979-2.466 2.497-6.058 2.204-9.398-1.166-13.271-2.274-26.548-3.62-39.8-.24-2.349 1.31-6.134-3.363-6.306.355-1.462.246-3.714 1.148-4.243 3.108-1.826 6.569-3.05 10.104-4.593.229.97.715 1.826.472 2.18-5.778 8.422-.26 17.155-1.284 25.823 10.626-2.478 10.898-2.916 9.374-14.955z"/><path fill="#1f3686" d="M774.511 781.496c-1.9-4.249-3.596-8.205-5.183-12.204-1.04-2.623-1.6-5.491-2.976-7.907-1.094-1.92-3.101-3.32-4.703-4.952-.194 2.17-.872 4.43-.487 6.492.975 5.216 2.39 10.353 3.708 15.501.53 2.066.266 5.147 4.117 3.78.227-.081 1.316 1.114 1.254 1.623-.117.953-.541 2.276-1.264 2.676-3.337 1.85-6.822 3.436-10.941 5.453-.16-1.59-.817-3.712-.332-4.016 3.397-2.13 1.975-4.868 1.338-7.54-3.428-14.38-6.806-28.773-10.377-43.118-.458-1.84.051-5.283-3.881-4.248-.157-1.394-.853-3.773-.387-4.028 4.51-2.464 9.058-5.126 13.942-6.51 1.949-.551 5.506 1.322 7.048 3.165 6.062 7.241 6.021 19.095 1.418 25.57l12.084 23.498-.42-8.628 1.715-.066c.196 4.279.851 8.603.43 12.82-.29 2.884-2.065 5.648-6.103 2.64m-12.438-48.936c-.716-1.304-1.148-2.98-2.23-3.804-.996-.757-2.919-1.142-4.008-.682-1.012.427-2.235 2.338-2.038 3.332 1.435 7.246 3.205 14.426 4.897 21.75 5.247-1.872 6.035-5.616 5.686-9.578-.304-3.45-1.325-6.836-2.307-11.018z"/><path fill="#1e3585" d="m874.525 716.529-1.814-5.902 1.559-.541c1.27 3.894 2.775 7.735 3.67 11.714.275 1.226-.826 3.711-1.82 4.04-1.367.453-3.837-.053-4.774-1.098-3.314-3.7-6.134-7.838-9.227-11.742-1.852-2.337-3.726-4.694-5.883-6.731-.7-.662-2.33-.338-3.534-.465-.052 1.132-.55 2.507-.086 3.357 3.187 5.834 6.49 11.61 9.986 17.262.557.9 2.256 1.125 3.459 1.58.873.33 1.798.523 2.7.778-.394 1.076-.476 2.525-1.238 3.163-2.902 2.427-6.023 4.593-9.537 7.21-.576-1.504-1.682-3.403-1.356-3.692 3.467-3.082.616-5.516-.737-7.904a2995.208 2995.208 0 0 0-21.146-36.732c-1.001-1.71-1.477-4.955-5.001-3.063-.324.174-1.738-.853-1.949-1.538-.199-.644.292-1.866.879-2.327 3.659-2.877 7.343-5.74 11.192-8.353 3.168-2.15 6.51-1.514 9.207.876 2.336 2.07 4.216 4.654 6.607 6.753.31-.257.251-.287.251-.287.255 1.293.344 2.648.794 3.869 1.796 4.866 2.322 9.649-.634 14.485 8.31 2.494 11.773 10.048 17.423 16.141.647-.048.828-.45 1.009-.853m-24.938-13.601c1.197-2.155 3.885-4.873 3.323-6.364-2.04-5.408-4.96-10.54-8.09-15.43-.55-.86-3.827-.407-5.578.204-.508.177-.667 3.32.003 4.574 3.03 5.671 6.413 11.153 10.342 17.016z"/><path fill="#233988" d="M504.837 865.953c-.725-4.514-1.199-8.665-2.142-12.706-1.243-5.324-4.748-8.514-10.845-9.869 0 8.074-.047 15.78.082 23.483.011.68 1.37 2 1.76 1.882 1.113-.335 2.62-1.06 2.942-1.989.85-2.453 1.154-5.094 2.658-7.638v31.294c-2.465-6.592-.409-13.646-6.984-17.865 0 8.874-.364 17.222.314 25.485.133 1.613 4.179 3.509 6.686 4.059 1.19.261 3.814-2.056 4.383-3.693 1.38-3.979 1.938-8.243 3.629-12.38v24.887c-8.787-5.015-18.891-7.308-26.454-14.926 4.266.21 5.029-1.534 4.955-4.837-.354-15.82-.407-31.648-.826-47.466-.047-1.798-1.736-3.542-2.629-5.33-.637-1.277-1.216-2.584-.903-4.637 7.627 3.561 15.278 7.075 22.847 10.754.808.393 1.606 1.746 1.625 2.669.136 6.807.074 13.619.074 20.503-.246-.276-.688-.771-1.172-1.68z"/><path fill="#1f3686" d="M353.218 778.013c7.682-3.496 12.466-1.392 13.783 6.399.705 4.166.661 8.638.001 12.821-1.9 12.033-6.766 22.913-14.47 32.375-2.063 2.533-4.662 4.808-7.422 6.56-6.12 3.886-11.95 1.79-13.244-5.288-.929-5.088-.94-10.695.164-15.736 3.144-14.34 8.718-27.572 21.188-37.13m.462 6.044c-8.537 11.677-13.969 24.797-17.57 38.685-.92 3.548-2.17 8.366 2.19 10.214 4.44 1.882 7.179-2.487 8.69-5.661 5.536-11.63 10.523-23.52 15.604-35.362.564-1.314.795-3.03.485-4.402-.51-2.257-1.59-4.386-2.43-6.569-2.16.84-4.32 1.68-6.969 3.095z"/><path fill="#213887" d="M684.497 775.923c-.058.972-.197 1.546-.336 2.12l-.916.126c-.87-3.197-1.558-6.459-2.669-9.57-.943-2.64-2.07-5.64-5.917-4.577-3.614.999-6.27 2.563-5.467 7.317 1.04 6.161 1.424 12.433 2.202 19.708 5.97-4.216 4.08-10.17 4.84-15.144l1.507.091 2.827 28.598-1.399.234c-.71-2.618-1.149-5.358-2.246-7.802-.549-1.222-2.3-1.904-3.508-2.83-.474 1.248-1.437 2.535-1.342 3.737.575 7.253 1.392 14.486 2.129 21.737 6.525-.906 9.132-3.173 10.366-9.896.907-4.944 1.034-10.031 2.704-15.085.6 7.387 1.248 14.77 1.715 22.166.043.686-.91 1.765-1.659 2.12-7.311 3.458-14.677 6.8-23.218 10.723.596-2.326.81-3.577 1.24-4.75.778-2.127 2.568-4.284 2.397-6.298-1.37-16.065-3.1-32.099-4.748-48.422l-4.935.355c.92-1.846 1.229-3.788 2.247-4.29 6.974-3.437 14.097-6.572 21.704-10.048.846 6.792 1.623 13.037 2.482 19.68z"/><path fill="#223887" d="M863.148 643.194c2.855-5.305 5.54-10.27 8.572-15.878l14.646 11.687-.837 1.323c-2.527-1.303-5.008-2.708-7.593-3.886-3.606-1.643-6.674-1.073-7.901 3.065-.411 1.386-.202 3.769.717 4.603 5.381 4.889 11.057 9.454 17.52 14.871 1.068-7.201-4.272-9.999-7.111-13.986l1.065-1.121 23.871 20.075c-6.123-.25-9.113-7.562-15.712-3.198l20.514 17.246c4.045-3.675 4.745-7.487 2.172-11.459-2.334-3.604-5.21-6.861-7.887-10.24-.854-1.078-1.833-2.057-2.755-3.082l1.014-1.033 18.46 15.866c-3.98 7.41-7.865 14.648-12.06 22.462-1.214-1.407-2.883-2.767-2.673-3.187 2.273-4.546-1.668-5.93-3.972-7.894-11.15-9.506-22.388-18.907-33.66-28.266-1.554-1.29-3.142-4.206-5.623-.868-.202.271-1.618.088-1.99-.321-.56-.616-1.115-1.734-.921-2.43.392-1.41 1.287-2.682 2.144-4.349z"/><path fill="#1d3585" d="M80.648 658.772c10.177-14.153 23.338-23.464 39.773-28.107.955-.27 1.94-.519 2.923-.59 4.028-.291 8.904-.878 10.548 3.44 1.179 3.098.992 7.9-.673 10.7-9.85 16.56-24.739 26.52-43.451 30.65-3.89.858-8.276.79-10.835-3.163-2.877-4.442-.645-8.603 1.715-12.93m43.15-10.463c.954-.924 2.038-1.749 2.837-2.792 2.231-2.911 6.409-5.814 3.541-9.787-2.689-3.726-7.125-1.525-9.952.352-11.424 7.583-22.59 15.56-33.708 23.588-1.645 1.188-2.797 3.305-3.705 5.216-1.763 3.707.145 6.522 4.184 5.836 3.204-.544 6.6-1.536 9.282-3.29 9.15-5.986 18.02-12.396 27.521-19.123z"/><path fill="#1e3585" d="M846.668 742.297c-2.717 9.584-8.821 11.944-16.002 5.612-13.932-12.285-20.632-28.284-21.346-46.708-.168-4.319.84-8.969 5.527-10.917 4.574-1.902 8.672.258 11.819 3.364 13.404 13.23 20.533 29.182 20.002 48.649m-14.322-30.103c-2.272-4.042-4.265-8.277-6.903-12.063-2.169-3.112-4.632-7.816-9.246-5.541-4.124 2.033-2.977 7.066-1.593 10.373a619.79 619.79 0 0 0 16.005 35.163c1.642 3.325 4.585 7.942 9.048 5.984 4.759-2.086 3.03-7.46 1.838-11.12-2.452-7.536-5.796-14.783-9.15-22.796z"/><path fill="#223887" d="M432.103 846.539c-.923 5.819-1.597 11.276-2.75 16.63-.76 3.532.635 5.236 3.637 6.534 2.958 1.28 5.437.731 6.848-1.977 2.033-3.902 3.577-8.058 6.435-11.95l-3.821 22.672c-7.76-3.747-14.92-7.129-21.98-10.71-.869-.441-1.195-1.95-1.773-2.963 1.26-.49 2.521-.978 4.472-1.735 1.85-11.28 3.817-23.234 5.769-35.19.455-2.79.795-5.6 1.304-8.378.59-3.225 2.05-6.537-2.133-8.696-.51-.263-.208-2.098-.338-4.034 7.699 3.721 14.816 7.113 21.861 10.647.661.331 1.314 1.618 1.221 2.369-.779 6.315-1.733 12.608-3.178 18.94-1.982-8.114 2.89-19.037-10.497-22.63-1.152 7.078-2.32 13.88-3.29 20.709-.124.864.641 2.522 1.26 2.664.855.197 2.453-.421 2.869-1.17 1.344-2.423 2.294-5.065 3.396-7.623.416.07.833.138 1.25.206l-4.27 27.085c-2.517-4.8.655-10.911-5.037-15.035-.476 1.27-.843 2.25-1.255 3.635z"/><path fill="#213887" d="M456.983 883.917c-7.88-18.038-6.962-35.915-1.142-53.857.503-1.55 1.412-3.024 2.374-4.36 3.653-5.078 8.599-5.115 12.206-.037 1.236 1.74 2.058 3.775 3.23 5.974l2.467-3.536 1.019.25-1.212 25.331-1.259.12c-.228-1.625-.392-3.262-.695-4.874-1.13-6.015-2.049-12.092-3.632-17.988-.437-1.623-2.795-3.494-4.49-3.74-1.086-.158-3.147 2.237-3.761 3.868-1.278 3.391-2.41 6.997-2.669 10.582-.739 10.274-1.111 20.58-1.396 30.88-.068 2.438.219 5.203 1.342 7.276 1.284 2.372 3.682 4.14 5.596 6.17 1.388-2.261 3.207-4.376 4.042-6.826.837-2.456.749-5.241.96-7.891.213-2.652.556-5.276-2.632-6.837-.778-.38-.769-2.37-1.48-4.892 4.686 2.614 8.2 4.408 11.536 6.488 2.705 1.688 2.465 2.505-.188 4.463-.841.621-1.347 2.103-1.456 3.243-.692 7.263-1.23 14.54-2.87 21.95l-1.927-10.414c-5.803 6.786-8.35 6.545-13.963-1.343z"/><path fill="#213787" d="M540.447 822.233c4.544-.499 6.59 2.503 7.602 5.562 2.178 6.576 4.335 13.284 5.304 20.108 1.76 12.386 1.862 24.873-1.31 37.148-.577 2.238-1.114 4.684-2.427 6.48-1.46 2-3.761 4.615-5.742 4.654-1.943.039-5.131-2.477-5.713-4.472-2.582-8.854-4.983-17.836-6.388-26.936-1.712-11.085-1.056-22.306 2.352-33.065 1.08-3.408 3.926-6.257 6.322-9.479m.76 65.888 3.536 3.01c1.013-1.218 2.19-2.34 2.983-3.689.565-.96.774-2.21.867-3.354 1.425-17.492.52-34.848-3.6-51.935-.46-1.904-2.595-3.405-3.953-5.092-1.239 1.82-2.49 3.634-3.701 5.473-.17.258-.178.638-.212.967-1.868 18.177-.499 36.126 4.08 54.62z"/><path fill="#213887" d="M793.897 719.999c1.954 4.556 3.78 8.75 5.806 13.405 5.565-4.803 1.218-9.696 1.398-14.214l1.228-.517 11.236 26.242c-4.578-2.258-4.68-9.718-12.598-8.465 3.35 7.853 6.296 14.999 9.512 22.02.426.93 2.214 1.253 3.39 1.818.878.422 1.785.781 2.68 1.169-.53.994-.804 2.398-1.63 2.91-3.36 2.084-6.888 3.893-10.937 6.125-.32-1.699-1.096-3.674-.686-3.963 3.967-2.79 1.345-5.707.226-8.379-5.52-13.173-11.154-26.298-16.84-39.401-.838-1.931-1.203-4.924-4.78-3.45-.371.154-1.851-1.036-1.824-1.549.05-.93.615-2.229 1.372-2.662 6.304-3.605 12.701-7.047 19.561-10.808l8.848 19.986-1.359.7c-1.719-2.868-3.236-5.887-5.228-8.551-1.33-1.778-3.2-4.033-5.073-4.289-2.113-.289-4.79 1.046-6.62 2.456-.712.549.052 3.272.455 4.929.349 1.431 1.14 2.755 1.863 4.488z"/><path fill="#213787" d="M556.577 820.982c-.09-1.578-.268-4.067.657-4.585 6.204-3.473 12.643-6.527 19.641-10.035v19.057l-.562.107c-.5-2.355-.625-4.886-1.618-7.012-.788-1.69-3.375-4.318-3.886-4.054-2.247 1.16-5.558 3.091-5.714 4.972-.64 7.724-.267 15.532.49 23.38 6.056-3.871 4.243-10.257 5.74-15.466l1.292.05v31.84c-.748-3.513-1.178-6.626-2.158-9.555-.354-1.058-2.027-1.675-3.098-2.493-.468 1.124-1.362 2.258-1.336 3.37.175 7.487.481 14.972.925 22.448.061 1.038.988 2.13 1.75 2.987.57.642 2.24 1.155 2.179 1.366-.323 1.115-.78 2.567-1.665 3.078-3.438 1.982-7.055 3.652-11.032 5.653 0-1.722-.49-3.753.078-4.113 4.636-2.943 2.959-7.379 2.833-11.304a2645.265 2645.265 0 0 0-1.87-45.899c-.064-1.297-1.452-2.529-2.646-3.792z"/><path fill="#203786" d="M284.01 749.608c-1.353 1.49-2.926 2.835-4.014 4.497-2.405 3.673-4.566 7.505-7.397 11.048.468-6.737 6.764-12.43 2.586-20.107-10.206 14.056-19.027 28.911-27.889 42.826l2.112 6.27-1.534.69-14.24-7.68c2.313-.946 3.555-1.467 4.807-1.963 1.324-.524 3.275-.63 3.892-1.597 8.426-13.188 16.677-26.489 24.933-39.785.404-.652.46-1.52.957-3.262-9.176.62-11.863 8.86-17.357 13.106l-1.111-.82 12.698-19.243c8.027 4.325 15.761 8.492 23.435 13.06-.666 1.255-1.272 2.108-1.878 2.96zm330.05 41.998c-.595.976-1.182 1.754-1.106 2.461 1.815 16.837 3.701 33.667 5.619 50.894 1.666-.167 2.868-.288 4.07-.412.726 4.098-1.292 5.61-13.706 9.942.249-1.556.07-3.605.707-3.902 3.786-1.767 2.838-4.761 2.493-7.715-1.7-14.53-3.365-29.063-5.069-43.593-.128-1.092-.46-2.16-1.485-3.342-5.822 6.522-3.835 14.85-5.9 22.58-.286-2.368-.664-4.73-.84-7.108-.402-5.413-2.684-11.92-.48-15.939 2.102-3.83 8.916-5.09 13.678-7.438 2.788-1.375 5.615-2.67 8.846-4.2 1.141 8.14 2.21 15.758 3.277 23.377l-1.495.35c-.906-3.15-1.402-6.504-2.842-9.387-1.268-2.54-3.591-4.553-5.766-6.568z"/><path fill="#1e3585" d="M284.268 749.928c.348-1.172.954-2.025 1.858-3.018 4.044 1.599 7.79 3.338 11.534 5.077l1.601 2.024c-1.217.39-2.59 1.351-3.625 1.07-4.415-1.196-4.596 2.155-5.305 4.727-1.583 5.748-2.968 11.551-3.953 17.6 5.27-7.619 17.284-10.663 13.784-24.045l11.152 5.558c-.814 1.208-1.409 2.858-2.007 2.86-5.292.012-7.666 4.198-10.84 7.226-9.202 8.777-17.317 18.361-23.126 29.817-1.552 3.06-2.106 5.165 1.58 7.293-6.562 2.979-10.371-3.178-15.58-4.125l-.338-1.294c1.17-.568 2.335-1.15 3.514-1.7 1.55-.725 3.677-1.002 4.584-2.204 9.74-12.9 12.05-28.57 15.873-43.662.22-.868-.282-1.919-.706-3.204z"/><path fill="#223987" d="M726.952 791.196a434.44 434.44 0 0 0-2.462-5.915c-.598.11-1.101.115-1.534.292-8.086 3.306-10.044 7.77-6.733 16.003.529 1.317 2.163 2.18 3.262 3.279.6.598 1.662 1.304 1.6 1.862-.098.908-.746 2.095-1.519 2.524-2.168 1.206-4.518 2.084-7.667 3.476 3.163-24.024-1.039-47.55.123-71.054l1.52-.276c.759 1.726 1.569 3.431 2.27 5.18 6.055 15.13 12.03 30.293 18.208 45.373.788 1.923 2.522 3.496 3.958 5.106 1.68 1.881 1.766 3.468-.667 4.583-3.156 1.447-6.387 2.731-10.743 4.575 1.806-5.432 4.042-10.147.384-15.008m-12.106-10.127.387 3.148 7.57-3.576-7.965-19.799c0 6.75 0 13.045.008 20.227z"/><path fill="#213887" d="m122.492 620.663 4.088-.683.413 1.095-21.215 12.59-.83-1.278c3.235-2.756 6.622-5.356 9.66-8.315 2.576-2.508 6.24-5.546 4.095-9.302-2.192-3.84-6.639-2.049-9.998-.915-12.913 4.357-24.45 11.217-34.856 19.98-1.125.947-2.105 2.158-2.879 3.415-2.463 4.002-.86 7.54 3.822 7.633 3.235.064 6.519-.907 9.73-1.636 2.015-.457 3.937-1.324 6.495-2.214-4.166 5.584-18.575 8.489-23.372 5.189-3.515-2.418-3.743-6.057-2.212-9.354 1.58-3.402 3.746-6.76 6.394-9.395 9.65-9.597 21.245-15.935 34.54-18.955 2.557-.58 5.303-.647 7.937-.504 7.124.387 9.612 4.13 7.292 11.515.122.718.51.926.896 1.134z"/><path fill="#223887" d="M856.004 682.947c-.98-2.53-2.239-5.024-2.895-7.667-.75-3.023-1.49-6.213-1.292-9.27.32-4.959 2.646-6.138 10.774-6.536-.677-1.551-1.357-3.099-2.417-5.51l17.318 17.736c-.04.138-.082.275-.123.412-1.442-1.063-2.81-2.25-4.341-3.164-3.404-2.036-6.762-4.245-10.402-5.743-1.522-.626-4.369-.26-5.414.818-1.01 1.04-.907 3.677-.506 5.432.468 2.046 1.388 4.281 2.81 5.767 8.248 8.618 16.673 17.07 25.127 25.49 1.018 1.013 2.51 1.876 3.9 2.114 1.993.341 4.845.847 5.957-.19 1.349-1.257 2.227-4.384 1.621-6.11-1.616-4.61-4.136-8.903-6.471-13.678.849.436 1.917.62 2.261 1.219 2.546 4.432 5.645 8.714 7.236 13.489 2.544 7.636-2.789 13.22-10.544 10.955-5.144-1.503-10.508-3.858-14.507-7.302-6.366-5.484-11.677-12.194-17.798-18.354-.365.032-.307.062-.294.092z"/><path fill="#213887" d="M313.15 794.227c-2.429 5.31-5.132 10.157-6.74 15.343-.688 2.221.096 6.311 1.694 7.425 1.561 1.09 5.484.198 7.525-1.127 3.327-2.159 5.967-5.376 9.461-8.68-2.024 6.382-9.868 13.57-15.271 14.607-4.418.848-8.403-2.146-8.741-7.322-.245-3.753-.026-7.732.974-11.337 3.456-12.468 10.255-23.023 19.716-31.821 1.686-1.569 3.678-2.89 5.708-3.993 8.179-4.443 12.941-1.883 13.956 7.872l4.296-2.692.943.687-12.486 20.714-1.359-.638c.449-1.259.916-2.51 1.342-3.776 1.426-4.234 3.202-8.398 4.088-12.743.394-1.931-.4-5.182-1.79-6.083-1.271-.823-4.739.034-6.074 1.34-4.129 4.038-7.845 8.53-11.436 13.072-2.154 2.725-3.775 5.87-5.805 9.152z"/><path fill="#203686" d="M412.67 802.989c-1.412 1.084-3.082 2.128-3.343 3.45-2.864 14.51-5.485 29.068-8.23 43.602-.593 3.138-.16 5.247 3.352 6.563 3.599 1.348 5.541-.234 6.907-2.89 2.087-4.064 3.779-8.33 5.639-12.51l1.323.289-4.767 23.035c-7.671-3.185-14.861-6.11-21.973-9.215-.74-.323-1.255-1.674-1.39-2.618-.052-.366 1.256-.9 1.913-1.4.974-.74 2.595-1.385 2.776-2.3a2600.913 2600.913 0 0 0 8.751-46.547c.201-1.128-.972-2.496-1.492-3.759-.55-1.335-1.082-2.678-2.116-5.242 5.28 2.204 8.938 3.727 12.594 5.259 2.807 1.176 3.317 2.6.057 4.283z"/><path fill="#1f3686" d="M364.144 845.848c-1.464-.524-2.68-.748-3.599-1.395-.637-.448-1.26-1.537-1.156-2.23.093-.62 1.21-1.067 1.834-1.636 1.244-1.133 3.212-2.1 3.572-3.479 3.782-14.462 7.395-28.972 10.773-43.534.365-1.577-1.104-3.548-1.601-5.37-.319-1.169-.415-2.398-.737-4.368 4.73 1.63 8.493 2.821 12.154 4.27.807.32 1.252 1.555 1.864 2.369-.754.546-1.542 1.051-2.254 1.647-1.099.918-2.816 1.724-3.114 2.877a2211.038 2211.038 0 0 0-11.235 45.474c-.26 1.105.891 3.52 1.754 3.717 2.153.493 5.467.982 6.606-.19 2.577-2.649 4.19-6.262 6.06-9.56.993-1.75 1.703-3.66 2.54-5.497l1.455.54-6.274 22.786c-6.392-2.206-12.33-4.255-18.642-6.421z"/><path fill="#203786" d="M741.362 782.703c-2.956-13.387-5.721-26.385-8.735-39.326-.282-1.21-2.125-2.064-3.263-3.06-.63-.552-1.869-1.103-1.83-1.572.075-.932.619-2.244 1.367-2.632 3.492-1.813 7.12-3.365 11.345-5.306.131 1.727.674 3.755.243 3.99-4.272 2.32-2.277 5.633-1.61 8.707 3.063 14.123 6.092 28.255 9.327 42.34.443 1.931-.272 5.703 4.102 4.466.29-.083 1.387 1.14 1.31 1.63-.152.967-.633 2.292-1.386 2.684-3.384 1.76-6.91 3.244-11.956 5.544 1.914-6.212 3.928-11.685 1.086-17.465z"/><path fill="#1e3585" d="M244.823 727.111c1.597-1.503 3.062-2.303 5.356-.67 2.945 2.097 6.265 3.666 10.086 5.838-1.323 1.151-2.627 2.727-2.99 2.533-4.028-2.14-4.903 1.312-6.328 3.47a4247.534 4247.534 0 0 0-22.682 34.707c-1.312 2.031-3.99 4.139-.446 6.736.363.266-.476 2.171-.853 3.71l-13.488-7.614c1.3-1.117 2.725-2.804 3.102-2.596 3.776 2.09 4.73-1.097 6.082-3.146 7.796-11.813 15.405-23.75 23.306-35.493 1.932-2.872 2.039-4.91-.906-7.262-.165-.293-.215-.24-.24-.213zm-104.841-57.175c.435-.32.87-.639 1.848-.79 1.135.953 1.728 1.736 3.238 3.733v-5.83c.368-.244.737-.49 1.636-.345.488.858.446 1.326.403 1.795l.741-.058-.222-2.245 9.641-6.588c2.47 2.947 4.58 5.466 7.09 8.464-1.446.701-3.164 1.95-3.517 1.641-3.27-2.867-5.148.123-7.173 1.62a3339.236 3339.236 0 0 0-34.677 26.006c-1.861 1.416-5.313 2.343-3.007 6.103.171.28-1.524 1.703-2.578 2.839l-8.989-10.773c2.402-.114 3.846-.163 5.287-.258 1.038-.068 2.348.177 3.068-.353 9.623-7.092 19.168-14.291 28.698-21.508.23-.174.075-.857-.306-1.712-.665-.853-.923-1.297-1.181-1.741m11.757-5.009.666.81.923-1.046c-.413-.037-.825-.073-1.589.236z"/><path fill="#203686" d="M173.162 690.665c.924-.657 1.85-1.314 3.26-1.626 1.211.24 1.934.133 2.797-.045 0-.07-.138-.067-.654-.062a36.058 36.058 0 0 1-1.898-.158l7.524-6.13 9.167 6.527c-1.388.894-2.777 2.27-3.239 2.009-3.686-2.086-5.476.75-7.605 2.649-10.666 9.51-21.364 18.988-31.88 28.662-1.18 1.086-1.27 3.345-1.892 5.05-.294.806-.445 1.954-1.032 2.282-.65.362-1.926.272-2.578-.156-3.027-1.988-5.932-4.162-9.275-6.55 1.187-.944 2.444-2.369 2.81-2.168 4.304 2.356 6.375-1.124 8.814-3.279a1137.346 1137.346 0 0 0 23.448-21.32c.08-.343.088-.278.422-.345.967-.712 1.599-1.358 2.474-2.216-.059-1.183-.361-2.153-.663-3.124z"/><path fill="#223887" d="M153.57 703.57c.308-.155.616-.31 1.176-.184.248.712.243 1.143.238 1.574l-22.853 15.777-1.056-1.32c8.015-9.586 16.03-19.172 24.545-29.14 2.182-2.633 3.865-4.884 5.746-7.272.45-.356.62-.626.826-1.016-.001-.062-.12-.055-.455.056-.483.293-.696.529-1.207 1-1.626.364-2.902.54-4.178.717 2.056-1.911 4.112-3.822 6.746-5.609 3.775.787 2.191-1.067 1.838-2.272-.158-.77-.376-1.535-.458-2.314-.083-.79-.314-2.108.018-2.29.827-.456 2.206-.859 2.886-.463 2.41 1.404 4.62 3.15 7.396 5.112a343408.32 343408.32 0 0 0-22.184 26.595c-.39.802-.428 1.18-.466 1.558l1.442-.51z"/><path fill="#1f3586" d="m137.339 652.74 6.221-9.448 6.156 7.193-26.074 27.323c.24.018.863.063 2.067.232.816.399 1.052.674 1.288.95l-24.399 13.926-1.119-1.323c10.13-9.992 20.261-19.984 30.894-30.323 2.125-1.745 4.034-2.937 5.246-4.629.584-.815-.145-2.57-.28-3.9z"/><path fill="#384c93" d="M137.091 652.795c.383 1.275 1.112 3.031.528 3.846-1.212 1.692-3.121 2.884-5.076 4.333-1.656.313-3.27.177-4.258.898-7.612 5.548-15.103 11.263-23.118 16.786-.831-.385-1.177-.63-1.523-.874 9.673-7.272 19.346-14.545 29.716-21.84 1.285-.695 1.875-1.368 2.464-2.04.34-.352.68-.703 1.267-1.11z"/><path fill="#384a93" d="M161.168 683.143c-1.683 2.25-3.366 4.5-5.381 6.824-1.76.343-3.586.143-4.55.96-5.66 4.79-11.118 9.819-17.099 14.666-.748-.297-1.042-.493-1.335-.69 7.655-6.968 15.311-13.936 23.258-21.023 1.567-.295 2.843-.471 4.539-.76.42-.114.568.023.568.023z"/><path fill="#223988" d="M132.486 705.04c.61.06.904.256 1.342.675-1.884 3.907-3.913 7.591-6.127 11.61l-8.258-5.89c4.594-2.259 8.66-4.258 13.043-6.395z"/><path fill="#243a88" d="M103.266 677.874c.724.155 1.07.4 1.588.912-1.673 3.46-3.518 6.652-5.69 10.409l-6.95-8.235a2701.8 2701.8 0 0 1 11.052-3.086z"/><path fill="#364a92" d="M155.317 704.878c-.328-.349-.323-.78-.316-1.535 5.853-4.382 11.702-8.442 17.856-12.59.607.883.91 1.853.535 2.78-1.243.817-1.809 1.678-2.375 2.54 0 0-.008-.066.016-.045-1.006.156-2.238-.028-3.03.478-4.18 2.667-8.247 5.509-12.686 8.372z"/><path fill="#344891" d="M127.35 678.946c-.589-.232-.825-.507-1.301-.918 4.246-2.758 8.734-5.38 13.577-8.048.614.4.872.844 1.247 1.52-4.313 2.62-8.742 5.01-13.524 7.446zm17.494-11.908c.224 1.457.224 2.902.224 5.84-1.51-1.996-2.103-2.78-2.966-3.772.66-.833 1.588-1.456 2.742-2.068z"/><path fill="#384a93" d="M164.687 675.984c.602 1.102 2.186 2.956-1.288 2.006.162-.826.6-1.364 1.288-2.006z"/><path fill="#1f3586" d="M135.515 654.01c-.28.566-.87 1.239-1.843 1.876.256-.613.895-1.19 1.843-1.875z"/><path fill="#344891" d="M147.593 666.221c.107.723.181 1.472.255 2.22l-.74.058c.042-.469.084-.937.259-1.791.133-.387.193-.462.226-.487z"/><path fill="#151510" d="M280.897 606.666c4.32-9.326 8.38-18.786 13.058-27.93 2.91-5.691 6.203-11.365 10.282-16.246 12.596-15.074 25.578-29.83 38.628-44.516 1.507-1.696 4.344-2.985 6.629-3.093 16.531-.775 32.224-4.419 46.863-12.33 11.984-6.476 23.676-13.684 36.17-18.982 18.995-8.055 38.529-8.07 57.725.248 1.973.855 3.842 1.98 5.681 3.106 1.685 1.032 3.264 2.236 4.74 3.261 25.722-16.883 51.837-15.778 78.197-2.458 9.341 4.72 18.31 10.172 27.516 15.168 14.473 7.854 30.075 11.302 46.443 11.972 2.135.087 4.791 1.355 6.207 2.958 14.44 16.347 28.826 32.747 42.844 49.454 3.111 3.707 4.865 8.604 6.992 13.074 4.06 8.53 7.94 17.146 12.07 26.428 1.626 4.217.467 5.677-3.313 5.29-18.146-1.863-36.341-3.34-54.433-5.631-15.694-1.987-31.062-5.618-45.452-12.577-11.864-5.737-23.897-10.362-37.415-11.292-12.698-.874-23.984 1.759-34.658 8.31-1.728 1.06-3.88 2.012-5.84 2.022-25.821.133-51.643.106-77.465.046-1.59-.003-3.498-.161-4.719-1.017-18.485-12.95-38.157-11.692-58.092-4.616-9.386 3.332-18.18 8.393-27.635 11.46-28.674 9.301-58.525 11.404-88.368 13.256-1.045.065-2.124-.408-3.378-.67l.723-4.695m391.324-68.378c-2.503-2.899-5.206-5.65-7.47-8.725-5.473-7.43-11.39-13.817-21.898-11.896-.307.056-.65-.13-.981-.162-17.967-1.77-33.78-9.197-49.236-18.019-9.772-5.577-19.822-11.176-30.44-14.652-19.101-6.254-38.05-5.07-55.64 5.98-2.82 1.772-3.881 3.913-3.847 7.348.188 18.655.09 37.313.09 55.97v8.73l1.475.858c1.043-1.441 1.899-3.076 3.157-4.295 27.843-26.994 62.003-32.158 95.003-13.042 16.087 9.32 32.918 15.567 50.915 19.467 14.713 3.19 29.529 3.185 45.427 3.064a25696.202 25696.202 0 0 0-26.555-30.626m-283.556-28.179c-11.938 5.014-24.39 7.518-37.318 8.116-2.281.105-5.126 1.344-6.622 3.027-13.16 14.802-26.079 29.818-39.043 44.794-.657.76-1.073 1.729-2.188 3.568 12.981-.779 25.057-.627 36.842-2.401 21.31-3.209 41.27-10.19 60.173-21.238 30.068-17.57 61.191-14.024 88.068 8.147 3.4 2.805 6.586 5.872 10.537 9.415v-57.954c0-13.717-1.026-15.217-13.894-20.12a50.395 50.395 0 0 0-4.743-1.518c-20.18-5.476-39.197-2.16-57.34 7.647-11.254 6.083-22.495 12.19-34.472 18.517m184.182 29.243c-26.174-3.56-47.076 6.8-65.084 24.712-5.29 5.261-6.69 12.578-4.044 20.028 16.884-30.521 51.034-47.357 73.39-34.651-15.804-2.546-29.504-.27-42.226 6.623-13.212 7.159-21.054 18.724-26.153 32.618 5.258 1.29 8.262.186 10.66-4.748 2.649-5.45 6.538-10.433 10.543-15.05 5.127-5.91 12.8-8.518 18.992-7.208-14.042 4.061-20.013 15.076-25.197 27.033 4.423 1.222 7.13.14 9.351-3.727 2.841-4.944 6.807-9.047 12.971-11.702l-10.716 14.996 1.269 1.63c2.971-1.055 5.996-1.981 8.9-3.196 4.428-1.85 8.602-4.54 13.181-5.75 15.795-4.176 31.37-2.65 46.466 3.354 9.257 3.68 18.035 9.11 27.592 11.382 18.228 4.333 36.815 7.244 55.34 10.193 9.403 1.497 18.998 1.79 29.226 2.691-5.175-11.908-9.847-22.895-14.815-33.747-.537-1.173-2.759-2.138-4.25-2.214-6.648-.34-13.326-.116-19.974-.466-26.065-1.372-50.993-6.799-73.601-20.653-9.55-5.851-19.686-10.432-31.821-12.148m-100.939 29.221c3.658 5.137 7.95 9.951 10.783 15.509 2.464 4.835 5.41 6.024 10.615 4.486-12.065-31.387-35.776-42.711-67.793-40.265 33.854-7.402 57.356 6.417 73.607 37.135 0-4.94.371-8.47-.121-11.876-.374-2.585-1.218-5.6-2.923-7.42-27.204-29.037-61.758-36.863-96.82-15.56-16.736 10.168-34.724 16.155-53.627 19.175-13.56 2.167-27.508 1.882-41.273 2.825-1.596.11-4.063.648-4.553 1.713-5.115 11.098-9.907 22.345-15.19 34.467 13.685-1.346 26.452-2.37 39.158-3.904 22.182-2.679 44.158-6.23 64.327-16.8 4.245-2.225 8.806-4.002 13.405-5.368 18.966-5.633 37.61-6.57 55.428 4.207 2.543 1.539 5.791 1.913 8.713 2.826l1.093-1.743-10.91-14.296c1.487.646 3.404.972 4.572 2.084 3.113 2.964 6.454 5.927 8.674 9.526 2.376 3.85 5.053 4.564 9.194 3.31-5.29-12.03-11.336-23.056-25.037-27.282 7.347-.836 13.007 2.305 18.678 7.251z"/><path fill="#572f33" d="M280.573 606.793c.101 1.317-.12 2.76-.399 4.568 1.254.262 2.333.735 3.378.67 29.843-1.852 59.694-3.955 88.368-13.256 9.455-3.067 18.249-8.128 27.635-11.46 19.935-7.076 39.607-8.335 58.092 4.616 1.221.856 3.13 1.014 4.72 1.017 25.82.06 51.643.087 77.463-.046 1.961-.01 4.113-.962 5.84-2.023 10.675-6.55 21.961-9.183 34.659-8.31 13.518.93 25.55 5.556 37.415 11.293 14.39 6.959 29.758 10.59 45.452 12.577 18.092 2.29 36.287 3.768 54.433 5.63 3.78.388 4.939-1.072 3.48-4.996 3.03 2.415 6.368 4.99 8.98 8.163 1.325 1.61 2.524 5.311 1.695 6.276-1.556 1.813-4.7 3.357-7.054 3.19-7.956-.564-15.862-1.888-23.777-2.99-35.118-4.894-70.238-9.773-105.346-14.741-12.026-1.702-23.985-3.92-36.037-5.4-10.013-1.228-19.45-.272-27.017 8.086-2.256 2.492-6.707 4.053-10.214 4.168-14.15.463-28.338.52-42.483-.021-3.784-.145-8.466-2.004-10.994-4.706-5.854-6.254-12.986-8.352-20.757-7.78-10.43.766-20.78 2.63-31.155 4.087-29.841 4.192-59.674 8.44-89.516 12.62a6727.59 6727.59 0 0 1-47.993 6.53c-1.945.258-4.065.458-5.907-.04-4.207-1.138-5.422-5.231-2.51-8.458 2.894-3.209 6.136-6.104 9.55-9.264z"/><path fill="#f4f6f7" d="M762.212 732.945c.843 3.798 1.864 7.184 2.168 10.634.35 3.962-.44 7.706-5.686 9.578-1.692-7.324-3.462-14.504-4.897-21.75-.197-.994 1.026-2.905 2.038-3.332 1.09-.46 3.012-.075 4.008.682 1.082.823 1.514 2.5 2.369 4.188z"/><path fill="#f5f6f7" d="M849.25 702.771c-3.592-5.706-6.976-11.188-10.005-16.86-.67-1.254-.511-4.396-.003-4.573 1.751-.61 5.028-1.064 5.579-.203 3.13 4.889 6.048 10.02 8.089 15.429.562 1.491-2.126 4.209-3.66 6.207z"/><path fill="#fcfdfa" d="M874.297 716.735c.047.196-.134.599-.49.82-.03-.326.116-.47.49-.82z"/><path fill="#f8faf9" d="M353.925 783.771c2.405-1.127 4.564-1.967 6.724-2.808.84 2.183 1.92 4.312 2.43 6.569.31 1.372.08 3.088-.485 4.402-5.08 11.841-10.068 23.733-15.604 35.362-1.511 3.174-4.25 7.543-8.69 5.661-4.36-1.848-3.11-6.666-2.19-10.214 3.601-13.888 9.033-27.008 17.815-38.972zM123.536 648.549c-9.239 6.487-18.11 12.897-27.259 18.882-2.682 1.755-6.078 2.747-9.282 3.291-4.04.686-5.947-2.129-4.184-5.836.908-1.911 2.06-4.028 3.705-5.216 11.118-8.028 22.284-16.005 33.708-23.588 2.827-1.877 7.263-4.078 9.952-.352 2.868 3.973-1.31 6.876-3.54 9.787-.8 1.043-1.884 1.868-3.1 3.032z"/><path fill="#f8f9f9" d="M832.534 712.518c3.165 7.69 6.509 14.936 8.961 22.472 1.191 3.66 2.92 9.034-1.838 11.12-4.463 1.958-7.406-2.66-9.048-5.984a619.79 619.79 0 0 1-16.005-35.163c-1.384-3.307-2.53-8.34 1.593-10.373 4.614-2.275 7.077 2.43 9.246 5.54 2.638 3.787 4.63 8.022 7.09 12.388z"/><path fill="#f7f9f9" d="M541.08 887.743c-4.452-18.116-5.82-36.065-3.953-54.242.034-.329.042-.71.212-.967 1.212-1.839 2.462-3.652 3.7-5.473 1.359 1.687 3.495 3.188 3.954 5.092 4.12 17.087 5.025 34.443 3.6 51.935-.093 1.143-.302 2.394-.867 3.354-.793 1.349-1.97 2.47-2.983 3.69-1.178-1.004-2.357-2.007-3.663-3.39z"/><path fill="#ebedf2" d="M714.842 780.626c-.004-6.74-.004-13.035-.004-19.784l7.965 19.799-7.57 3.576a85.31 85.31 0 0 1-.391-3.591z"/><path fill="#fcfdfa" d="M122.323 620.43c-.218.025-.605-.183-.774-.524.347.009.476.15.774.525z"/><path fill="#344891" d="M151.915 664.755c.588-.137 1-.1 1.413-.064l-.923 1.046c-.222-.27-.444-.54-.49-.982z"/><path fill="#364a92" d="M179.08 689.066c-.724.106-1.447.212-2.32.04-.148-.28-.056-.243-.075-.287.489.008.995.061 1.912.148.41.034.483.099.483.099z"/><path fill="#fcfdfa" d="M171.351 696.005c.232-.794.798-1.655 1.798-2.26-.2.902-.831 1.548-1.798 2.26z"/><path fill="#364a92" d="M178.975 688.965c.106-.038.244-.04.244.029-.14.072-.211.007-.244-.029z"/><path fill="#fcfdfa" d="M153.36 703.357c-.27.382-.751.552-1.232.722.038-.378.076-.756.352-1.241.382.031.525.17.88.52z"/><path fill="#384a93" d="M162.074 682.058c-.088.321-.258.59-.708.947-.198.138-.347.001-.417-.073.092-.358.305-.594.816-.856.245-.073.309-.018.309-.018zm-.092-.086c.09-.038.209-.045.21.017-.118.069-.182.014-.21-.017z"/><path fill="#fcfdfa" d="M672.461 538.549c8.701 10.03 17.163 19.799 26.315 30.365-15.898.12-30.714.125-45.427-3.064-17.997-3.9-34.828-10.148-50.915-19.467-33-19.116-67.16-13.952-95.003 13.042-1.258 1.22-2.114 2.854-3.157 4.295l-1.476-.857v-8.731c0-18.657.099-37.315-.089-55.97-.034-3.435 1.026-5.576 3.847-7.348 17.59-11.05 36.539-12.234 55.64-5.98 10.618 3.476 20.668 9.075 30.44 14.652 15.457 8.822 31.269 16.249 49.236 18.019.33.032.674.218.98.162 10.51-1.92 16.426 4.466 21.899 11.896 2.264 3.075 4.967 5.826 7.71 8.986zM389.03 509.994c11.612-6.212 22.853-12.319 34.108-18.402 18.142-9.807 37.159-13.123 57.339-7.647 1.601.434 3.194.928 4.743 1.518 12.868 4.903 13.894 6.403 13.894 20.12v57.954c-3.951-3.543-7.137-6.61-10.537-9.415-26.877-22.171-58-25.717-88.068-8.147-18.904 11.047-38.863 18.029-60.173 21.238-11.785 1.774-23.86 1.622-36.842 2.401 1.115-1.84 1.53-2.809 2.188-3.568 12.964-14.976 25.883-29.992 39.043-44.794 1.496-1.683 4.34-2.922 6.622-3.027 12.928-.598 25.38-3.102 37.683-8.231z"/><path fill="#fafbf8" d="M573.278 539.457c11.704 1.611 21.84 6.192 31.39 12.043 22.608 13.854 47.536 19.281 73.601 20.653 6.648.35 13.326.127 19.974.466 1.491.076 3.713 1.041 4.25 2.214 4.968 10.852 9.64 21.839 14.815 33.747-10.228-.9-19.823-1.194-29.225-2.69-18.526-2.95-37.113-5.861-55.341-10.194-9.557-2.272-18.335-7.701-27.592-11.382-15.097-6.004-30.671-7.53-46.466-3.355-4.579 1.211-8.753 3.9-13.18 5.751-2.905 1.215-5.93 2.14-8.901 3.196l-1.269-1.63 10.716-14.996c-6.164 2.655-10.13 6.758-12.97 11.702-2.223 3.868-4.93 4.949-9.352 3.727 5.184-11.957 11.155-22.972 25.197-27.033-6.191-1.31-13.865 1.298-18.992 7.208-4.005 4.617-7.894 9.6-10.543 15.05-2.398 4.934-5.402 6.037-10.66 4.748 5.099-13.894 12.941-25.46 26.153-32.618 12.722-6.893 26.422-9.17 42.227-6.623-22.357-12.706-56.507 4.13-73.39 34.651-2.646-7.45-1.247-14.767 4.043-20.028 18.008-17.911 38.91-28.272 65.515-24.607zM471.65 568.33c-5.413-4.703-11.073-7.844-18.42-7.008 13.7 4.226 19.747 15.252 25.037 27.282-4.14 1.254-6.818.54-9.194-3.31-2.22-3.599-5.56-6.562-8.674-9.526-1.168-1.112-3.085-1.438-4.572-2.084l10.91 14.296-1.093 1.743c-2.922-.913-6.17-1.287-8.713-2.826-17.818-10.777-36.462-9.84-55.428-4.207-4.599 1.366-9.16 3.143-13.405 5.368-20.169 10.57-42.145 14.121-64.327 16.8-12.706 1.535-25.473 2.558-39.157 3.904 5.282-12.122 10.074-23.369 15.189-34.467.49-1.065 2.957-1.604 4.553-1.713 13.765-.943 27.713-.658 41.273-2.825 18.903-3.02 36.89-9.007 53.627-19.175 35.062-21.303 69.616-13.477 96.82 15.56 1.705 1.82 2.55 4.835 2.923 7.42.492 3.405.12 6.935.12 11.876-16.25-30.718-39.752-44.537-73.606-37.135 32.017-2.446 55.728 8.878 67.793 40.265-5.205 1.538-8.151.35-10.615-4.486-2.833-5.558-7.125-10.372-11.04-15.753z"/></svg>