<svg xmlns="http://www.w3.org/2000/svg" width="80" height="80" viewBox="0 0 80 80">
    <defs>
        <style>
            .a {
                fill: #384fc5;
            }
        </style>
    </defs>
    <path class="a"
        d="M20,58.29,25.2,77.41H15.88L15.39,74H12.16l-.49,3.46H2.17L6.85,58.29Zm-4.87,12.3c-.42-2.18-.87-4.88-1.35-8.12-.88,3.71-1.45,6.42-1.69,8.12Z" />
    <path class="a"
        d="M55,58.29V77.41H47V64.5L43.82,77.41H38.24L34.92,64.77V77.41h-8V58.29H38.62Q39.1,60,39.7,62.34L41,67.22l2.11-9Z" />
    <path class="a"
        d="M77.82,58.29V71.12a12.51,12.51,0,0,1-.25,3,4,4,0,0,1-1.5,1.82,9.23,9.23,0,0,1-3.37,1.39,21.53,21.53,0,0,1-4.93.48,24.69,24.69,0,0,1-5.56-.55,9.66,9.66,0,0,1-3.61-1.5,3.64,3.64,0,0,1-1.41-1.93,28.12,28.12,0,0,1-.26-4.2V58.29H66V72.62a3.28,3.28,0,0,0,.26,1.6,1.23,1.23,0,0,0,1,.34c.58,0,1-.13,1.12-.37a4,4,0,0,0,.26-1.81V58.29Z" />
    <path class="a"
        d="M34.55,22,41.1,2.2,47.49,22H69.16L51.71,34.8l6.77,20.35L41.1,42.65,23.72,55.18l6.84-20.35L13,22Z" />
</svg>