<svg xmlns="http://www.w3.org/2000/svg" viewBox="0 0 306 304">
    <g fill="#111">
        <path
            d="M4 17ZM3 273Zm2-74Zm217 102Zm-18 2ZM229 1ZM23 3Zm280 5a2 2 0 0 1 0-1V5a1 1 0 0 0 0-1l-2-3 2 3h-1l-1-2h-3c1 0 1 0 0 0h-7l1-1h-10c-2 0-3 1-2 2l-2 1h-2l-1-1h-3l-3-2-3 1a4 4 0 0 1-3 0l-4-1h-2v2h-1l1 1h-2a6 6 0 0 0-1-1l-1-1h-8l-2-1a7 7 0 0 0-4 0h-3a4 4 0 0 0-2 0h-1l1 1h-3a4 4 0 0 1-3-1l1-1h-9l-2 1a2 2 0 0 0-2 1h-6l-1-1h-2v1c1 0 1 0 0 0h-1v1h-1l-2-1a7 7 0 0 0-3-1h-2 1v1l-1-1h-3v1a4 4 0 0 1-3-1V0l-1 2h-2V1l3-1h-4a3 3 0 0 0-4 0h-11v1h1l-1 2h-4V2l1-2h-7l-3 1-1 1h-2l1-1V0h-4l2 1h-1l-2 1h-2a1 1 0 0 0-1-1h-3v1h-2a2 2 0 0 0-2 1h-2V2a4 4 0 0 1-2-1h-1V0l-1-1h-2v2h1v1l1-1h-4V0l-2 1h-5l-1 1a3 3 0 0 1-2 1V2l-3 1v1h-1l-1 1h-11l-3-1h-1l-1-2V1h-2v1a5 5 0 0 0-5 1v1h-9l1-1h-1v1h-2l2-1a3 3 0 0 0-3 0h-3a4 4 0 0 0-3 0l-1-1h-1a6 6 0 0 0-3 0h-5v1-1h-1l-2-2h-3l-4-1h-1l-1 1h-4l-1 1h-9l1 1h3v1h-2l-1-1v1h-1v1h-1l-2-1a8 8 0 0 0-4-2l-2 1h2l-1 1 1 1h-7l-1-1a4 4 0 0 0-3 0h-3a4 4 0 0 0-3 1 7 7 0 0 1-3 0V1v1h2l1-1V0h-1l-2 1-3-1H8L3 1v5l2-1 2-2-2 2h1l1 2a7 7 0 0 1-1 2 7 7 0 0 0-1 3v3H4v4l-1 1-1 2v1h1v-1h1v1l-1 1-1 2 1 2v2c0 1 0 2 1 1h1v5H4a4 4 0 0 0-1-2H2a4 4 0 0 0 0 1l1 2a2 2 0 0 1 0 1 3 3 0 0 0 0 2l2 2-1 1a5 5 0 0 1-1 3v2l2 3v1H4l-1 2H2l1-1 1 2v5a6 6 0 0 1-1 3v-2l-1 1v2l1 3v1l-1-1a3 3 0 0 0 0 1v1l1 1 1-1h1v3a5 5 0 0 0-1 2H3v2l-1 1 1 2h1l1-1 1 2v2l-1 1a7 7 0 0 1 0 2 7 7 0 0 0 0 3l-1-2a3 3 0 0 0 0-1l-1-2v5H2l1 1v2l-1 3v1l1 1v5a40 40 0 0 1 0 5v5l1 1v2l-1 2H2c0 1 0 0 0 0a5 5 0 0 1 0-3v-1H1a21 21 0 0 0-1 6s0 1 0 0h2v1a11 11 0 0 0-1 3v1l1 3v12a3 3 0 0 0 0 2l1-1 1-3c0-1 0-1 0 0l1 2v2a4 4 0 0 0-1 2H3l-1-3v2H1a2 2 0 0 0 0 2v1h1v2l-2 1a2 2 0 0 0 0 1v1l1 4v7h1l1 4v1-1 2l-1 2H1l1 1h1v1l-1 1a1 1 0 0 0 0 1v3h1a1 1 0 0 0 1-1v2H3c-1 1-1 0-1-1a9 9 0 0 0 0 3v1a1 1 0 0 0-1 1l1 2v1l-2 1 1 2 1 1h1v1H2v-1a3 3 0 0 0 0 1l1 3a5 5 0 0 1 1-3l1 1v1-2h2v1l1 2a9 9 0 0 0 0 4 25 25 0 0 0-1 6H6v-3l-1-1v-5l-1 1a8 8 0 0 0 0 1v1H3a10 10 0 0 0 1 4v1H3a1 1 0 0 0-2 0v3h1l1 2a3 3 0 0 1 0 2l-1 2-1 4 1 2v1l1 3H2a3 3 0 0 0-1 3v1l1 1v1l1 1v2h1a8 8 0 0 0 0-2v-1 2l1 1 1-1a15 15 0 0 1 0-5v-3h1v6a1 1 0 0 0 0 1v5a3 3 0 0 1 0 2l-1 1v3l-1-1-1 1v1a8 8 0 0 0 0 3l1 1 1-1v7l-1 2v4l1 3h1v1a2 2 0 0 0-1 2 39 39 0 0 1 0 6H5a14 14 0 0 0-1 9c0 1 0 0 0 0v-2l-1 2v6a18 18 0 0 0 1 3v1l-1 3a18 18 0 0 0 0 2h1v4l1-3v-1l1-3 1 5a30 30 0 0 1 0 5l3 1h2l2-1h-1 5l2 1h3l2 1 1-2h5l6 2h3l1-1a6 6 0 0 1 4 0l1 1h15v-1h1l1 1h1a4 4 0 0 0 3 1h11a1 1 0 0 0 1 0 4 4 0 0 1 3-1h5l1 1h6a18 18 0 0 1 8 0h2v-1a2 2 0 0 1 2 0l2-1 1-1a5 5 0 0 1 3 0h4a6 6 0 0 1 4 0h-1a2 2 0 0 0 0 1h1l3-1h2a6 6 0 0 1 3 1h4l2 1 3-1h16l1-1h12c1 0 0 0 0 0s-2 1-1 2v1h3l1-1v-2h2l-1-1h3l1 2v1-1h-3 4l2-1h1l1-1a3 3 0 0 1 0-1h3v2h1-1 5l2 1h10v-2h2l2 1v-1 1a7 7 0 0 1 3 0v1h-3l2 2h6v-1l2-1-1-1h2a2 2 0 0 0 0-1h1a4 4 0 0 1 3 1l1 1h7l4 1h1v-2l1-1 1 1 1 1 2 1h7l1-1h5l2 1h1l1-1h2v1h9l4-2h3v1a5 5 0 0 0 3 1h3l3-1h3l1 1a17 17 0 0 1 5 1h3a2 2 0 0 1-2-1h2l2 1c1 0 0 0 0 0h1l3-1h3l-1-1h-2v-1h-2l-2 1h2a7 7 0 0 0-6-1h-1a4 4 0 0 0-3 0h-1l-1 1h-1l-1-1h19V187a4 4 0 0 0 0-2v-14a9 9 0 0 0 0-3 18 18 0 0 1 0-5v-2a6 6 0 0 0 0-2v-11a5 5 0 0 0 0-2 18 18 0 0 0 0-5 16 16 0 0 1 0-3v-20l1-4v-1a4 4 0 0 1 0-3v-3l1-4v-7a13 13 0 0 1 0-4 3 3 0 0 0 0-1v-1l-1 1a41 41 0 0 1 0-6 8 8 0 0 0 0-1h-1V66a9 9 0 0 0 1-3 5 5 0 0 0-1-2v-2h1a2 2 0 0 0 1-2 13 13 0 0 1 0-6v-1a1 1 0 0 1 0-1c0-1 0 0 0 0v-6a13 13 0 0 1 0-2v-4l-1-3a7 7 0 0 1 0-3l1-5v-5c1 0 1 0 0 0a5 5 0 0 0 0-1v-3 3-4a7 7 0 0 1 0-3l1-4Zm-41-4ZM5 61c0-1 0-1 0 0Zm0 3Zm-1 54v2-2Zm0 15a4 4 0 0 1 0-1v1Zm0-6c0 2 0 2-1 1a3 3 0 0 1 0-1l2-1-1 1Zm-2 95Zm1-10a2 2 0 0 1 0-1h1l-1 1Zm2-2-1-1a2 2 0 0 1 0-1h1Zm2 6v1Zm0-3s0-1 0 0c1 0 0 0 0 0Zm-3 76Zm3-6H6v-1a4 4 0 0 1 0-1h1v2Zm282 18h1l-1-1v1Zm-1 1v1h-1v-1ZM282 4s-1 0 0 0Zm-38-1Zm-3 0h-1c-1 1 0 1 1 1Zm-59-2Zm-19 1Zm-10 2h5v1h-6V4Zm-31 0ZM70 4h1a5 5 0 0 1 3 0h-4Zm-4 0Zm-6-2h1v1h-1Zm-3 1Zm-4-2h1-1Zm1 2h-4a5 5 0 0 1 4-1ZM44 2l3 1h-1Zm17 2ZM10 4ZM9 1ZM7 34ZM4 148v1-1Zm-1-2Zm0 2v1-1Zm1 22H3v-1h1l1-1v2Zm1-10-1 2a15 15 0 0 0-1-5v-1H2v-2l1-1h2v2s0-1 0 0a2 2 0 0 0 0 1v3h1l-1 1Zm0-12v-3l1-1v2l-1 2Zm0-9Zm1-26Zm0 23Zm-1-27v-1a4 4 0 0 1 0-2 2 2 0 0 0 0-1v-2a7 7 0 0 1 0-3l1 1a7 7 0 0 0 0 4l1 3c-1-1-1 0-2 1Zm2-52-1 1-1-2h2v1Zm0-33a2 2 0 0 1 0-2v2Zm0 17Zm0 130a1 1 0 0 1 0-1v1Zm0 81h1v1H7Zm0 15a1 1 0 0 1 1-1v1Zm32 32Zm19-1Zm12 2h-2s-1 0 0 0h2Zm3 0Zm27 0Zm20-2h-1 1Zm7 2h-3v-1h2v1Zm9-1-3 1h3Zm11 1h-8v-1h8Zm5 0h-2v-1h2l-1 1Zm4 0Zm5-1Zm4 1h-1v-1h1Zm9-2h-1 1Zm14 3Zm18-3h-1v-1h1Zm4 3Zm13-2v-1l-2 1v1h-1c0-1 0-2 2-2h2v2Zm5 0h-1v-1h1Zm18 1Zm3-1v-1Zm12 0h-1 1Zm3 1Zm17 0Zm-98-2a2 2 0 0 1 2 0h-2v-1h1v1ZM301 13v-2l1 1v1Zm1 38v2h-1v-3ZM5 254Zm-2-57Zm4 32ZM6 101Z" />
        <path
            d="m1 198 1-1h1v-2l-1-3H1l-1 1v1l1 1h1l-1 2v1c-1 0 0 0 0 0Zm2-1Zm111 106ZM26 2l1-1h-1a3 3 0 0 1-2 0h-1v2l1-1ZM10 301h5-2ZM5 13a14 14 0 0 1 0-2 4 4 0 0 0-1-3l1 5Zm157 290v1Zm73 0-1 1h1l1-1ZM5 267Zm0-3H4v2l1-2Zm0-4Zm0-2v2-2Zm258 44h-1l-1 1h2v-1Zm-103-1-1 1h2-1ZM107 1ZM25-1c-1 1 0 1 2 1l-1-1Zm121 2h-2 2Zm-22 301ZM5 245v-1 1ZM142 1Zm-29 0ZM31 1Zm88 300Zm-3 0Zm0 0a3 3 0 0 0 2 0h-2Zm190-121c0-1 0-1 0 0ZM178 303h2-1ZM1 177v-1 1ZM303 16c0 1 0 1 0 0ZM205 1h-1v1ZM4 238Zm-1 36v-1 1Zm112 29Zm-1 0Zm187-169h1-1ZM32 3ZM6 200ZM303 78ZM6 261c-1 0-1 0 0 0ZM254 2ZM105 2ZM5 255ZM90 1ZM63 300Zm0 0Zm-59-5Zm1 0ZM22 1h1-1Zm1 0ZM4 18ZM149 0Zm64 302v1-1Zm0 0Zm0 0ZM2 70Zm201 233ZM2 57Zm185 246c-1 0 0 0 0 0ZM1 106h1-1Zm1 0ZM296 4Zm1 0ZM7 228ZM303 62ZM92 1v1-1Zm-8 0-1 1 1-1ZM25 300Zm23 0ZM211 1ZM68 1h-1 1ZM4 268v-1 1Zm1-1Zm-1 1ZM4 8Zm0 0Zm112 293Zm-1 0Zm-1 0h-4v2h3v-1l1-1ZM158 1Zm0-1c0 1 0 1 0 0Zm-43 1Zm9 301Zm0 0v-1 1Zm0-1Zm-1 1Zm0 0s-1 0 0 0Zm81 1ZM2 72Zm0 1a1 1 0 0 0 0-1v1Zm0 31v-1 1Zm0 59Zm102 140Zm81 0ZM2 106Z" />
    </g>
    <path fill="#f6f6f6"
        d="M84 84h-1l1-1-3-4h-1c1-1 0 0 0 0v-1l-4-2H64v1l-4 2-1 1-2 2a51 51 0 0 1-1 4v1l-1 2v3l1 1v4l1 3 1 2 2 3h1l3 2 2 1 2 1 1 1h1l1 1 1 1 2 2 2 2v1l1 1-1 1c0 1 0 3-2 4l-3 1h-1l-1-1h-1v1-1l-1-1-1-1-1-4v-4a3 3 0 0 0-2 0h-3l-3-1-1 1-1 1v6l1 4v1l1 2 1 1 3 3h1l1 1 3 2h7l4-1h1a5 5 0 0 0 3-1l2-2 1-1 1-1v-2l1-1 1-1v-2l1-2-1-8v-3l-2-3v-1l-6-5-3-2h-1a4 4 0 0 0-1-1l-4-2c-2-1-3-4-3-6v-3l2-1h3c2 0 3 1 3 2l2 4v3h1c0 1 0 0 0 0l4 1 1-1 1 1h1l1-2v-3l-1-1v-4h-1v-1Zm-6-6Zm-9 0c0 1 0 1 0 0Zm8 0Zm-6 1h1l-1 1v-1Zm5 0Zm-8 3v-1 1Zm-6 1Zm7 1Zm-3 1Zm-3 0Zm21 1-1 1v-1Zm-19 0h-1 1Zm15 1Zm0 0h1l-1 1Zm5 2-1-1h1v1Zm-24-1Zm21 2h1v-1 2-1h-1Zm-2 2Zm5 0Zm-22 2v-1 1Zm-4 4Zm18 7Zm2 8v-1 1Zm-22 0Zm8 2-1-1h1v1Zm21-1Zm-2 0h-1Zm-23 1Zm0 0h1-1Zm21 0h-1 1Zm-25 1h-1v-1l1 1Zm28 0v-1 1Zm-4 0s0 1 0 0h-1 1Zm-25 0Zm26 1h-1v-1h1v1Zm4 3h-1v-1l1-1v-1 3h1-1Zm-29-2 1-1 1 1a7 7 0 0 1-1 1l-1-1Zm4-1v1-1Zm2 1Zm19 0Zm-22 1 1-1v1h-1Zm4 0Zm15 1c-1 0-1 0 0 0Zm2 1 1 1-1 1v-2l2-1-1 1Zm-1-1Zm-23 0v1h-1l1-1Zm3 1v1h-1Zm-2 1Zm3 0Zm0 0c0 1 0 1 0 0Zm22 1-1 1v-1h1Zm-17 0Zm-7 2-1-1v-1h1v2Zm4 0v-1 1Zm7 0h1-1Zm-2 0v1l-1-1h1Zm-10 1v-1 1Zm8-1v1-1Zm-4 0v1Zm18 1h1-1Zm3 1v1-1Zm-6 1Zm-6 0h-1Zm-8 1h-1v-1l1 1Zm16 1h-1l1-1Zm-13 2h1v1a1 1 0 0 1-1 0v-1Zm4 0Zm-5 1Zm62-18c-1 0 0 0 0 0h-1l-1 1 1 2v5l-1 2v2l-1 2-2 3h-3v-1 1l1 1h-1l-3-1 1-1h-1v1h1l-1 1h-2l1 1h-3c0-1 0-1 0 0h1c1 0 1 0 0 0v-1l1-1v-1h1-4v3h1-6l-3-1-1-1h1-1l-2-1-1-1 1 1h1l1-1-1-1-1 1v-1l-1 1v-1l-2-2v-3l-1-2V90l1-2v-1l1-4 1-2v-1l1-1a38 38 0 0 1 3-2h2l2-1h10l2 2 1 1v-1l2 1 1 2 1 1v1s1 0 0 0l1 1v3l1 1v11h-3l-1-1v1h-2v-1h-1v1h-3l-1-1 1-2v-3l-2-5h-1l-1-1-2 1h-2v2l-1 4v4l1 2-1 2v1h-1v1h1v-1 1l1 2v6l-1 1v2l1 3h-1v1l1 1 2 4h4l1-1 1-1h1v1l1-2v-1 1h1v2l1 1h3v-3l-1 1v1l-2-2h-1c0-1-1-2-2-1v1l-1-1v-1h1v-1l-1-1v-6c1 0 1 0 0 0v-3l1-2h2l1 1 4-1v2-1 1h-1 1l1-1v-1h-1 1l1 1 1 1v7Zm-9-37Zm-8 0v1-1Zm7 1h-1 1Zm1 0 1 1v-1h-1Zm3 1c-1 0-1 0 0 0v1-1Zm-1 1h-1 1Zm-2 0Zm1 2 1-1h-1v1Zm2-1v1h1l-1-1Zm-3 1Zm5 0v1h1v-1h-1Zm-7 1Zm7 0-1 1h1v-1Zm-6 0v1Zm-1 1h1-1Zm3 0Zm-9 0v1l1-1h1-2Zm11 0v1-1Zm-1 1v-1 1Zm-8 0c0-1 0 0 0 0h1-1Zm2 0Zm5 0Zm-3 1Zm7 1Zm1 0v1c0 1 0 0 0 0v-1Zm1 1Zm-3 2Zm2 0Zm-5 0c-1 0-1 0 0 0Zm6 1h-1l1 1v-1Zm0 1h-1v1h1v-1Zm-4 1a1 1 0 0 0 0-1v1Zm3-1c-1 0-1 0 0 0Zm-18 1h1Zm16 1Zm-5 1v1h1v-1h-1Zm7 1v-1 1Zm-8 1Zm-11 2h1c1 0 0 0 0 0h-1Zm-1 1Zm-5 4v1h1Zm3 1Zm-5 1v1-1Zm4 1h-2l1 1h1Zm23 1v1h1v-1l-1-1Zm-26 1c-1 0 0 0 0 0a3 3 0 0 0 0-1v1Zm22 0Zm-21 0Zm1 0 1 1v-1h-1Zm2 0Zm17 0v1-1Zm4 1Zm1 0Zm-19 0v1l1 1h1l-1-1-1-1Zm14 2h1-1v-1l-1-1v1l1 1Zm-19-1v-1 1Zm3 0v1l1-1h-1Zm-6 0Zm24 0Zm1 0h1-1Zm-20 0h-1l1 1v-1Zm24 0h-1v1l1-1Zm-2 1c1 0 0 0 0 0 0 1 0 1 0 0Zm-2 0v1l1-1h-1Zm-5 1h1v-1l-1 1Zm-12-1Zm16 1h1l-1-1v1Zm-19-1Zm-3 1v-1 1Zm8 0v-1l-1 1Zm18 0h-1v1Zm-22 0v1-1Zm-5 1v-1 1Zm1 0h-1v2l1 1 1 1v-1l1-1c-1-1-1 0-1 1l-1-1v-2l1 1h1v-2l-1 1h-1Zm5 0Zm1 0v1h2v-1h-2Zm18 0h-1Zm1 0-1 1h1Zm-3 1v-1l-1 1h1Zm-2 1v-1l-2-1v1l2 1Zm-15-1-1-1v1h1Zm21 1v-1l-1 1h1Zm-3-1v1-1Zm-15 1-1-1-1 1 1 1 1-1Zm-3 0h-1l1 1v-1Zm-7 1v-1 1Zm22 0h-1v1l1-1Zm-17 1-1-1h1-1v1h1Zm20-1v1-1Zm2 0v1-1Zm1 0Zm-20 2 1-1-2-1v1l1 1Zm-7-1h-1 1Zm6 0Zm16 0Zm6 1-2-1v1s0-1 0 0h2Zm-7-1Zm4 1h-1v1h-1l1 1v-1l1-1Zm-21 1v1l1-1v-1h-1v1Zm-4 0h1l-2-1v2h1v-1Zm22 0v-1 1Zm3 0h1-1Zm2 1v-1 1Zm-26 2 1-1v-1l-1 1v1Zm1-1h-1 1Zm3 0c0 1 0 1 0 0Zm5 1v-1 1Zm16 1a1 1 0 0 0 0-1h-1l1 1Zm-20-1v1l1-1h-1Zm-3 1h1v-1h-1v1Zm5 0h1-1Zm14 0-1-1v1Zm-17 0v1h1l-1-1Zm18 0v1l1-1h-1Zm-9 0Zm1 1v-1 1Zm-11-1v1l1-1h-1Zm-1 1h1-1v-1 1Zm11 0h-1l-1-1v1h2Zm-3 1c1 0 1 0 0 0v-1h-1l1 1Zm-11-1Zm21 1-1-1v1h1Zm2-1c0 1 0 1 0 0Zm-19 1v-1 1Zm4 0h1-1Zm-8 0Zm12 0h1-1Zm12 1-1-1v1h1Zm-19 0v-1 1Zm2-1-1 1 1-1Zm-5 1h1l-1-1-1 1Zm13 0v-1l-1 1 1 1v-1Zm-7 0 1 1v-1h-1Zm3 0h-1 1Zm-4 2v-1h-1l1 1Zm-1 0v-1h-1l1 1Zm7-1Zm-9 0Zm7 0c0 1 0 1 0 0Zm3 1h1-1Zm4 0Zm-9 0h-1 1Zm4 0Zm-1 0Zm-11 0Zm10 1v-1h-1v1h1Zm5-1v1-1Zm-4 2c1 0 1 0 0 0v-1 1Zm-3 0v-1l-1 1h1Zm9 0h-1 1Zm-7 1v-1 1Zm-5 0v-1 1Zm12 1Zm-6 0Zm57-30v9l-1 2v8l-1 1v1l-1 4-2 2-5 3h-12l-3-1-5-4-1-2h2v-1h-2l-1-4v-22h1l2-1-1-1-1 1h-1v-4l1-2V83l1-2 1-1v-1l3-1a16 16 0 0 0 2-1l3-1h11l1 1h1l4 2 1 2 1 1 1 2v3l1 2c-1 0-1 0 0 0v9l-3-1h-2v2h2l2-1h1v6s-1 0 0 0Zm-27-23Zm16 17h1l2 1v-1l-1-1h-1l-1 1v-8l-1-2-3-2h-4v1l-1 1v8l-1 2a1 1 0 0 0 0 1v22l4 4h1l2-1h1l1-1v-7l1-3v-2l-1-8 1-4v-1Zm-18-1h1a3 3 0 0 0-1 0Zm22 0Zm-22 1Zm22 0h1-1Zm-17 1Zm18 0Zm-26 1Zm29 0h1-1Zm-3 1h1v-1h-1v1Zm2 0-1-1v1h1Zm-25-1h-1 1Zm23 1Zm3 2h-1 1Zm1 0Zm-6 1v-1l-1 1h1Zm7 0c-1 0-1 0 0 0Zm-29 1h1v-1l-1 1Zm27 0h1l-1-1v1Zm-20 0h-1 1Zm-7 1c-1 0 0 0 0 0v-1Zm2 1v-1c1 0 0 0 0 0v1Zm-1-1v1-1Zm25 1v-1 1Zm-19 0h-1 1Zm21 0Zm-23 0Zm15 0v1h1v-1h-1Zm-18 0h-1 1Zm24 1h1l-1-1v1Zm-23 0h1-1Zm5 0Zm-7 1h1l-1-1v1Zm28-1Zm-8 1v1-1Zm-19 1-1-1v1h1Zm6 1c0 1 0 1 0 0h1Zm13 3v1l1-1h-1Zm-18 0-1 1h1v1-2Zm4 1Zm16 0Zm-1 0Zm-17 1v1h1v-1h-1Zm-6 0 1 1v-1h-1Zm2 0h1-1s0 1 0 0Zm24 0Zm-22 0v1-1Zm20 1h1-1Zm-23 0v1-1Zm-1 1v-1 1Zm21 0v-1 1Zm-18 0c-1 0-1 0 0 0Zm20 0Zm-21 1v-1h-1v1h1Zm6 0v-1 1Zm15 1v-1h-1l1 1Zm-22 0Zm4 0h-1 1Zm2 0Zm1 1h1Zm-4 1 1-1-1 1Zm3 0h-1 1Zm-7 0Zm7 1Zm-5 1-1-1v1h1Zm3 0v-1l-1 1v1h1l-1-1h1Zm1 0v-1 1Zm1 2h-1 1l1 1-1-1s0-1 0 0Zm12 0Zm-10 0Zm6 1v-1h-2l1 1h1Zm-4 0 1 1v-2h-1v1Zm4 0h1v-1l-1 1Zm-11 0v-1Zm13 0v1l1-1h-1Zm-7 1v-1h-1v1l1 1v-1Zm6 1 1 1v-1h-1v-1h-1v1h1Zm-7 1v-1h-1l-1-1-1 1v1h3Zm-4-2Zm9 2v-1h-1v-1 2h1Zm-12-1Zm20 1v-1l-1 1h1Zm-3 1v-1l-1 1h1Zm-6 0-1-1 1 1Zm-4 0Zm8 0Zm1 1v-1h-1v1h1Zm-12-1Zm13 1v-1 1Zm2 1v-1h-1v1h1Zm-6-1Zm-6 0Zm8 1h1-1Zm2 0c0 1 0 1 0 0Zm54-50v4h-4l1 1v-1h1l-1 1h-4l-1-1v1h1-2l-2 1v5l1 2-1 1 1 1v1l-1 2v4l1 2v26l-2 2h-9l-1-1-1-1v-5h1l-1-2v-9h1v-1h-1v-6h1v-1l-1-1 1-1-1-2 1-2v-1l1-1v-1h-2v-4l1-1h1-1v-4l-1-1-2-1h-7v-1h-2v-2h2l-1-1a7 7 0 0 1-1 0v-5l1-3h13a1 1 0 0 1 1 0h17l2 3v3Zm-27-6Zm4 1Zm-3 0h-1 1Zm5 0v1h1l-1-1Zm-5 1Zm3 1v-1h-1l1 1Zm-9-1Zm1 3v1l1-1h-1c0-1 0 0 0 0Zm12 0v1-1Zm17 0v1-1Zm-29 1Zm16 0Zm13 1v-1 1h-1a1 1 0 0 1-1 1h1l1-1Zm-3-1-1 1h1v-1Zm-24 0Zm17 0v1-1Zm-6 1h-1 1Zm-4 0Zm-2 1-1-1h-1 1v1h-2v1h1l1-1h1Zm7-1Zm-13 1v-1h-1v2-1h1Zm1 0 1 1h1l-1-2h-1v1Zm7 1h1v-1h1-2v1Zm11-1Zm4 0Zm6 0Zm-29 1v-1 1Zm21 0h1v-1h-1v1Zm5 0h-4v1-1l1 1h2l1-1Zm-11 0Zm-1 0h-1 1Zm14 0h-1 1Zm-21 0h-1 1Zm14 1v-1h-4l-1 1h5Zm-12 0h1l-1-1v1Zm-11 0h1-1Zm21 0h-1 1Zm-16 1v-1h-1v1h1Zm5-1Zm4 0v1-1Zm-13 1h1l-1-1v1Zm6 0Zm4 1h1l-1-1v1Zm4-1v1Zm0 1h-1l1 1v-1Zm-5 0Zm3 0Zm-1 2v1-1Zm-1 1Zm6 2s-1 0 0 0v-1 1Zm-3 0h-1v1h-1l1 1 2-1v-1h-1Zm-1 0h-1 1Zm5 0h1-1Zm-4 1h-1 1Zm3 0-1 2h1l1-1-1-1Zm-6 1v1h1v-1h-1Zm2 1v1Zm-2 0h-1 1Zm7 1v-1 1Zm-3 1Zm2 0Zm-1 0v1-1Zm-4 0v1-1Zm-2 0h1-1Zm5 1v-1 1Zm2 0h1-1Zm-6 0Zm2 1c0-1 0 0 0 0Zm3 0h1a1 1 0 0 0-1 0Zm-1 0Zm-1 1Zm3 0Zm-1 1v-1 1Zm-4-1h-1 1Zm0 1Zm7 0Zm-9 1h1l1 1-1-1v-1l-1 1Zm10 0h-1 1Zm-10 1h1-1Zm7 0h-1 1Zm-4 0h1-1Zm7 0Zm-3 1Zm-4 1Zm2 0Zm-3 0Zm7 1v-1 1Zm-3 0Zm-2 2v-1 1Zm-5-1v1-1Zm1 0v1l1-1h-1Zm2 1-1-1v1h2-1Zm-1 2Zm3 6 1 1v-1h-1Zm-2 1v-1h-1l-1 1h1l1 1v-1Zm8 2Zm-4 0-1 1h1v-1Zm0 2Zm2 0h1-1Zm-5 2v-1l-1 1h1Zm8 0h-1 1Zm-11 0h1-1Zm0 1Zm1 1Zm6 1Zm-2 3Zm5 0h-1 1Zm54-48v1l-1 1 1 2h-4l1 1v-1 1h-4l-1-1v1h1-2l-2 1v5l1 2-1 1 1 1-1 1v8l1 2v24l-2 2h-9l-1-1-1-1v-5h1l-1-2v-9h1v-1h-1v-6h1v-1l-1-1 1-1-1-2 1-2v-1l1-1v-1h-2v-4l1-1h1-1v-2l-1-2h1l-1-1-2-1h-7v-1h-2v-2h2l-1-1h-1v-5l1-3h13a1 1 0 0 1 1 0h17l1 3 1 3Zm-27-6Zm4 1Zm-3 0h-1 1Zm5 0v1h1l-1-1Zm-5 1Zm3 1v-1h-1l1 1Zm-9-1Zm1 3v1l1-1h-1c0-1 0 0 0 0Zm12 0v1-1Zm17 0v1-1Zm-29 1Zm16 0Zm13 1v-1 1h-1a1 1 0 0 1-1 1h1l1-1Zm-3-1-1 1h1v-1Zm-24 0Zm17 0v1-1Zm-7 1h1Zm-3 0Zm-3 1h1l-1-1h-1 1v1h-2v1h1l1-1Zm8-1Zm-13 1v-1h-1v2-1h1Zm1 0 1 1v-2h-1v1Zm7 1h1v-1h1-2v1Zm11-1h-1 1Zm4 0Zm6 0Zm-29 1v-1 1Zm21 0h1l-1-1v1Zm5 0h-4v1-1l1 1h2l1-1Zm-11 0Zm-1 0h-1 1Zm14 0h-1 1Zm-21 0h-1 1Zm13 1a1 1 0 0 0 1 0v-1h-4l-1 1h4s0 1 0 0Zm-11 0h1l-1-1v1Zm-11 0h1-1Zm21 0h-1 1Zm-17 1 1-1h-1v1Zm6-1Zm4 0v1-1Zm-13 1h1l-1-1v1Zm6 0Zm4 1h1l-1-1v1Zm4-1-1 1h1Zm0 1h-1l1 1v-1Zm-5 0Zm3 0Zm-1 2v1-1Zm-1 1Zm6 2h-1 1v-1 1Zm-3 0h-1v1h-1l1 1 2-1v-1h-1Zm-1 0h-1 1Zm5 0h1-1Zm-4 1h-1 1Zm3 0-1 2h1l1-1-1-1Zm-6 1v1h1v-1h-1Zm2 1v1Zm-2 0h-1 1Zm7 1v-1l-1 1h1Zm-3 1Zm2 0Zm-1 0v1-1Zm-5 0 1 1v-1h-1Zm-1 0Zm5 1v-1 1Zm2 0h1-1Zm-6 0Zm2 1c0-1 0 0 0 0Zm3 0h1a1 1 0 0 0-1 0Zm-1 0Zm-1 1Zm3 0Zm-1 1v-1 1Zm-4-1h-1Zm0 1Zm7 0Zm-9 1h1v1h1l-1-1v-1l-1 1Zm9 0Zm-9 1Zm7 0h-1 1Zm-4 0h1-1Zm7 0Zm-3 1Zm-4 1Zm2 0h-1 1Zm-3 0Zm7 1v-1 1Zm-3 0Zm-2 2v-1 1Zm-5-1v1-1Zm1 0v1-1h1-1Zm2 1-1-1v1h2-1Zm-1 2Zm3 6 1 1v-1h-1Zm-2 1-1-1c0 1 0 0 0 0l-1 1h1l1 1v-1Zm8 2Zm-4 0-1 1h1v-1Zm0 2Zm2 0c0 1 0 1 0 0Zm-5 2v-1l-1 1h1Zm8 0h-1 1Zm-11 0Zm0 1h-1 1Zm1 1Zm6 1Zm-2 3Zm5 0h-1 1Zm-137 59v5l-1 1v1h1v17l-1 5v8h1l-2 2-2-1h-5l-1-1h-1v1h-1l-1-1-1-2h-2l-4 2-1 1h-4l-3 1h-3l-3-1h-3l-2-1-3-3-1-1-2-4-1-4-1-6v-33l2-1v-1h-1v-3l1-1v-1c0-1 0 0 0 0h-1v-6l1-2h1l-1-1 1-2v-1l2-1 4-1v2a3 3 0 0 0-1-1l-1 1 1 1 1-1h2v1h-1l2 1v-2l-2-2h-1v-1h-4l1-2h1l3 1c0 1 0 1 0 0l1-2 1-1h2v-4h1v1l1 1v1l2 2 1-1 2 1h1v-1h4v-1l-2-2v-1h5l-1 2h1l-2 2v1h1l1-1v-2l1-1-1-1h4l1 1h-1l-1 2-1 1v1-1l2-1h2v-2h-1 3v3h2v-1c0-1 0-1 0 0l1 1 1 1h1l2 2v1l1 2-2 1-1 1-2-1h1v-1h-1v1l-1-1h-1l1 2 1 1c-1 0 0 0 0 0h2l1 1v2h1l1-1h-1l1-3h1v4h-1l1 1h-4l-2 2v2h4v1h-3v1h4l1-1h-1l1-1 1 1-1 1 1 2v3l-1 3h-7l-6-1-2-1v-10l-1-3a1 1 0 0 0-1-1c-2-1-4-2-7-1l-3 2-2 6v9l-1 1 1 1v14l-1 1-2 1 1 1h2v9l1 2v3l1 2 1 1 4 1 2 1 1-1 2-5v-3l1-4v-1l-1-2-1-1h-3l-1-1h-1v-11h19a2 2 0 0 0 1 0h4v4Zm-29-42-1-1 1-1h1l1 1 3-1-1 4h-1l-1-2-1 1-1-1Zm17 3 2 1v2h1l1-2a5 5 0 0 0-2-1l-1-1Zm-27 0s0-1 0 0Zm5 1h2-2Zm9 0Zm9 0-2 1h1c1 1 2 0 2-1h-1Zm-16 1Zm19 0Zm-6 0 1 1h1l-1-1h-1Zm-3 1h1v-1l-1 1Zm16 0v1h3l-1-2-2 1Zm-7 0h1l1 2v-1l-1-1Zm-11 3h-1l1 1a1 1 0 0 0 1 0l1-2-2-2v3Zm-2-3-1 1h1v-1Zm7 1v1l1 1h1v-1h1v-1l-1 1-1-1h-1Zm-12 1h-1l1 3h1l1-3h-2Zm10 0Zm-7 0Zm27 1h-1v-1l1 1Zm-13-1v1-1Zm-14 1v1-1h1-1Zm18 0h1-1Zm1 2-2-2-1 1 1 1 1 1 1-1Zm-34 0Zm29 1-1-1 1 1Zm-14 0 1-1h-1v1Zm10 0h-1 1Zm-19 0Zm29 1-2-1v1l-2 1v1h4-1v2h-1 1l2-2v-1l-1-1Zm-21-1Zm-15 1 1 1v-2l-1 1Zm13 0h-1v1h1a5 5 0 0 0 0-1Zm-3 0h1-1Zm21 0Zm-27 3a1 1 0 0 0 0 1h1v-1l1-1v-1h-2v1l1 1h-1Zm27-2-1 1h1v1h1v-1l-1-1Zm12 1v-1l1 1-1 1v-1Zm-31 0v1h1l-1-1Zm-10 2-1 1v1l1 1 1-1v-2h-1Zm30 0s1 0 0 0l-2 1v3h1l1-3v-1Zm10 0h-1Zm-35 1v1-1Zm28 2 2 1v-1h-2Zm-27 2 1-1v-1h-1l-1 1 1 1Zm-6-1h1l-1-1v1Zm32-1h1-1Zm-1 2 1-1-1 1Zm4 0h-1 1l2 2h2l-1-2h-3Zm-37 0Zm42 1h1-1Zm-6 2v-1 1Zm-35 0h-1Zm30 1h1v-1l-1 1Zm-25 0v-1 1Zm6 3v-1h-2l1 1h1Zm-14 2v1Zm3 6Zm1 3h1v-1l-1 1Zm23 0v-1 1Zm13 1h1v-1h-1v1Zm-40 2Zm13 1Zm-13 1c-1 0-1 0 0 0Zm3 0Zm28 3v-1 1Zm-18 1h1l-1-1v1Zm-3 0v-1Zm-4 0v1-1Zm31 1h1-1Zm-22 1v-1h-1v1l1 1v-1Zm-8 0h1v-1h-1v1s-1 0 0 0Zm2 3 1-1v-1h-1l-1 1v1h1Zm3 0 1-1-1-1-1 1 1 1Zm-5-1-1 1h1v-1Zm-3 1h1v-1l-1 1Zm32 0h1l-1-1v1Zm1-1h1-1Zm-36 1Zm13 1v-1 1Zm-12 0Zm33 1 1-1h-1Zm-20 0Zm26 0Zm-37 2v-1l-1-1v1l1 1Zm0 0 1 1 1-1-1-1-1 1Zm30 1-1-1v1h1Zm-25 2v-1 1Zm20 0h1-1Zm1 0s0 1 0 0Zm-26 1h1l-1-1v1Zm5 0Zm33 2v-1Zm-10 3Zm-9 1Zm-1 2v-1h-2l2 1Zm-10 0Zm3 1v-1 1Zm-7 1v-1h-2v1h2Zm17 0v-1 1Zm3 0v-1 1Zm-2 0Zm17 0h1-1Zm-34 2v-1 1Zm1 2Zm30 2c-1 0-1 0 0 0Zm-23 1v-1 1Zm42-21v1l-1 2v10l1 3a1 1 0 0 1 0 1l-1 3 1 1 1 1h8l4 1h2l1-1 1-1 1-3a8 8 0 0 1 0-5v-4a8 8 0 0 1-1-2v-37l-1-2v-1l1-4v-22l-2-1h-4l-4-1h-2l-2 1h-2l-2 1h-1v4l1 2v10l1 3-1 2v5l1 2-1 2 1 1v28Zm2-55Zm7 5-1-1 1 1Zm4 4h-1 1Zm-2 3v-1Zm-8 3v-1Zm1 26h1-1Zm72-40 1 3-1 1 1 2v1l-1-1h-1l-1 1v2h-3v-1 2h1l1 1 1 2-1-1h-1v1h-1v-2h-1l-1 1-1 1 2 1h1l1 1 1 2 1 1h2l1-1-1 1v1h-2a7 7 0 0 0-1 3v1a1 1 0 0 1-1 0l-1-1v1l-1 1v3h-1l-1 1 1 1h1-1l-1 1v-2l-1-1a8 8 0 0 0-1 0h-1v3l1 2v1l-2 1h-2l-1 1-2-1h-1v1l3 2 1-1h1v1l1 1 2-1 1 1h1l1-1c1 1 2 0 2-2l1-1h2l2 1 1 1-1 1v4l-1 1 1 3v21l-1 1-1 1 1 1 1-1v8h-4v-1 1h-11l-2-1v-1l-1-2-1-5v-1l-1-3-1-4-2-6-1-3-2-6-1-2v-3l-2-4-1-1v-2h-1v2h1v1l-1 2v37l-1 2h-8c-3 0-4-1-6-3v-12c-1 0-1 0 0 0v-36a3 3 0 0 0 0-3v-9l1-1 1-1v-1l-1-1h-1v-3l1 2a3 3 0 0 0 0-1l-1-1v-1l-1-5v-3l1-2 1-1h7v1l1 1 1-1v-1h6l2 2 1 2v4h-2l-1 1 1 1 2 1h1l-1-1v-2h1l1 2v1l1 2v1h1v3l1 1v2l1 2-1 3v3l-1 3v1l-1 1-1 1 1 1-1 3v3l1 1v-1l1-3 1-1v-1h6v-1h-3c-1 0-2-1-1-2v-1 1l2 1h1l1 1 1 1h-1v1h1v-1l1-1v-1 1l1 2h1v-2l-1-2-1-1v-1l1-2v-2l-1-2h1l1-2h1l-1-2-1-3h2v-1l-1-1h1v-1h-1v1l-1-1s0 1 0 0l-1-4v-7c-1 0 0 0 0 0v-3l2-1h12l1 3-1 3Zm-43-5h-1l-1 1v1l1 1 1-3Zm6 1s-1 0 0 0Zm35 0Zm-36 0v1-1Zm37 1h-1l1 1v-1Zm-2 1Zm-3 1v1h1v-2l-1 1Zm-33 0v1l1-1h-1Zm32 0h-1 1Zm-30 1c1 0 0 0 0 0Zm-6 0h1-1Zm8 1h1-1Zm-2 1h1v-1l-1 1Zm4-1-1 1v2h1l1-1v-1h1-1l-1-1Zm25 0-1 1 1-1Zm-22 0h-1 1Zm18 0Zm9 5v-1l-1-2-1-1-1-1v2l1 2 1 1h1Zm0-3 1 1 1-1a1 1 0 0 0-1-1h-1v1Zm2 0h1-1Zm-7 0-1 1h1v-1Zm-35 1Zm7 1v-1 1Zm35 0v-1a1 1 0 0 0-1 1h1Zm-29 0Zm23 1c-1 0-1 0 0 0Zm-24 3 2 1 2-1v-1l-1-1h-1v-1l-1 1v1l1 1h-2Zm-1-2v-1l-1 1h1Zm21 0Zm-29 1v2h1v-2h-1Zm39 1h-1 1Zm1 0h1v1l-1-1Zm-42 0v1a1 1 0 0 0 1 0l-1-1Zm10 0h-1l1 1v-1Zm-4 2-1-1v1a1 1 0 0 0 1 0Zm34-1h1v1h-1v-1Zm-32 0v1l1-1h-1Zm21 0v2-2Zm3 1 1 1h1c-1-1-1-2-2-1Zm9 3v-1h1v-1l-1-1h2v2a1 1 0 0 1-2 1Zm-24-3h1-1Zm-17 1v1h2l1-1v-1l-2 1h-1Zm29 0Zm-19 3 2-2v-1h-1l-1 2v1Zm6-3-1 1h1v-1Zm25 1h-1 1Zm-26 4v1h-1v1a1 1 0 0 0 1 0v-1l1-1v-2l-2-2v2h1v2Zm-16-2 2 1 1 1v-2l-1-1h-2v1Zm5 0v-1h-1l1 1Zm8-1 1 1v-1h-1Zm23 2-1-2-1 1-1 1v1h3v-1Zm-16-1Zm-7 1Zm5 0v1l2 1v-1l-1-1h-1Zm24 0Zm-34 1h1-1Zm29 0v1h1v2h1v-1h1v-1l-3-1Zm0 3-3-2h-1v4l1-2h2v1-1 1l1-1Zm-27-1a1 1 0 0 0-1-1v2l1-1Zm21-1v1-1Zm-13 3-2-1 2 1Zm-16 0h1v-1h-1v1Zm6-1v1-1Zm35 1v-1 1Zm-39 0Zm31 1h1l-1-1v1Zm-32 0v-1l-1 1h1Zm16 0v-1Zm-14 0v1l1-1h-1Zm-6 1v-1h-1v1h1Zm24 2v-2h1v2Zm10-2v-1 1Zm2 0h1-1Zm8 1h-1l-1-1v-1l2 2Zm-29-1Zm3 0Zm16 1-2-1 2 2v-1Zm-25-1v1l1 1v-2h-1Zm-6 2h1v-1l-2 1h1Zm12 1v-2 2Zm4-1h1v-1h-1v1Zm7 1-1-1 1-1v3-1Zm-13 1v-2h-2v1l1 2 1-1Zm4-2 1 1h1-1l-1-1Zm25 0 1 1h-2v-1h1Zm-36 1Zm10 2 2 1 1-1-2-2-1 1v1Zm-9-1v-1 1Zm0 1Zm7 1h1l-1-1v1Zm-8 0v-1 1Zm7 2v-1l-1-1h-1a1 1 0 0 1-1 0h-1v4h1v-1l1-1h2Zm-8 0-1-2-1 1 2 1Zm33-1v-1 1Zm-22 0h1l-1-1v1Zm2 0Zm17 1 1-1-1 1Zm-11 1v-2h-1v2h1Zm2-1h-1 1Zm-18 1-1-1v1a1 1 0 0 0 1 0Zm36 1v-2l1 2-1 1v-1Zm-23-1h-1 1Zm-6 0Zm24 1Zm-22 1Zm15 0 1 1Zm-8 2 1-1h-1v1Zm9-1Zm-23 0 1 1v-1h-1Zm18 3v1h1l-1-1Zm8 1-1 1v1h1l1-1-1-1Zm-3 1h1-1Zm7 0 1 1v-1h-1Zm-7 1 1 1v-1h-1Zm2 1v1l1 1h1v-1l-1-1h-1Zm-16 1h-1 1Zm12 4-1 1h1v-1Zm-20 1Zm15 3v1-1Zm4 1v1l1-1h-1Zm5 1h1l-1-1v1Zm-27 0Zm16 1v-1 1Zm-14 3-1-1 1 1Zm-3 9 1-1h-1Zm26 2v1-1Zm6 4Zm64-72 1 3-1 1 1 2v1l-1-1h-1l-1 1v2h-3v-1 2h1l1 1 1 2-1-1h-1v1h-1v-2h-1l-1 1-1 1 2 1h1l1 1 1 2 1 1h2l1-1-1 1v1h-2a7 7 0 0 0-1 3v1a1 1 0 0 1-1 0l-1-1v1l-1 1v3h-1l-1 1 1 1h1-1l-1 1v-2l-1-1a8 8 0 0 0-1 0h-1v3l1 2v1l-2 1h-2l-1 1-2-1h-1v1l3 2 1-1h1v1l1 1 2-1 1 1h1l1-1c1 1 2 0 2-2l1-1h2l2 1 1 1-1 1v4l-1 1 1 3v21l-1 1-1 1 1 1 1-1v8h-4v-1 1h-11l-2-1v-1l-1-2-1-5v-1l-1-3-1-4-2-6-1-3-2-6-1-2v-3l-2-4-1-1v-2h-1v2h1v1l-1 2v37l-1 2h-8c-3 0-4-1-6-3l-1-1 1-6v-1l-1-2v-2l1-4v-32a3 3 0 0 0 0-3v-10l2-1v-1l-1-1h-2l1-2v-1l1 2a3 3 0 0 0 0-1l-1-1v-1h-1v-8l1-2v-1h8v1l1 1 1-1v-1h6l2 2 1 2v4h-2l-1 1 1 1 2 1h1l-1-1v-2h1l1 2v1l1 2v1h1v3l1 1v2l1 2-1 3v3l-1 3v1l-1 1-1 1 1 1-1 3v3l1 1v-1l1-3 1-1v-1h6v-1h-3c-1 0-2-1-1-2v-1 1l2 1h1l1 1 1 1h-1v1h1v-1l1-1v-1 1l1 2h1v-2l-1-2-1-1v-1l1-2v-2l-1-2h1l1-2h1l-1-2-1-3h2v-1l-1-1h1v-1h-1v1l-1-1s0 1 0 0l-1-4v-7c-1 0 0 0 0 0v-3l2-1h12l1 3-1 3Zm-44-5c1 0 0 0 0 0l-1 1v1l1 1v-3Zm7 1s-1 0 0 0Zm35 0Zm-36 0v1-1Zm37 1h-1l1 1v-1Zm-2 1Zm-3 1v1h1v-2l-1 1Zm-33 0v1l1-1h-1Zm32 0h-1 1Zm-30 1Zm-6 0Zm8 1h1-1Zm-2 1h1v-1l-1 1Zm4-1-1 1v2h1l1-1v-1h1-1l-1-1Zm25 0-1 1 1-1Zm-22 0h-1 1Zm18 0Zm9 5v-1l-1-2-1-1-1-1v2l1 2 1 1h1Zm0-3 1 1 1-1a1 1 0 0 0-1-1h-1v1Zm2 0h1-1Zm-7 0-1 1h1v-1Zm-35 1Zm7 1v-1 1Zm35 0v-1a1 1 0 0 0-1 1h1Zm-29 0Zm23 1c-1 0-1 0 0 0Zm-24 3 2 1 2-1v-1l-1-1h-1v-1l-1 1v1l1 1h-2Zm-1-2v-1l-1 1h1Zm21 0Zm-29 1v2h1v-1l-1-1Zm39 1h-1 1Zm1 0h1v1l-1-1Zm-42 0v1a1 1 0 0 0 1 0l-1-1Zm10 0h-1l1 1v-1Zm-4 2-1-1v1a1 1 0 0 0 1 0Zm34-1h1v1h-1v-1Zm-32 0v1l1-1h-1Zm21 0v2-2Zm3 1 1 1h1c-1-1-1-2-2-1Zm9 3v-1h1v-1l-1-1h2v2a1 1 0 0 1-2 1Zm-24-3h1-1Zm-17 1v1h2l1-1v-1l-2 1h-1Zm29 0Zm-19 3 2-2v-1h-1l-1 2v1Zm6-3-1 1h1v-1Zm25 1h-1 1Zm-26 4v1h-1v1a1 1 0 0 0 1 0v-1l1-1v-2l-2-2v2h1v2Zm-16-2 2 1 1 1v-2l-1-1h-2s0-1 0 0v1Zm5 0v-1h-2l2 1Zm8-1 1 1v-1h-1Zm23 2-1-2-1 1-1 1v1h3v-1Zm-16-1Zm-7 1Zm5 0v1l2 1v-1l-1-1h-1Zm24 0Zm-34 1h1-1Zm29 0v1h1v2h1v-1h1v-1l-3-1Zm0 3-3-2h-1v4l1-2h2v1-1 1l1-1Zm-27-1a1 1 0 0 0-1-1v2l1-1Zm21-1v1-1Zm-13 3-2-1 2 1Zm-16 0h1v-1h-1v1Zm6-1v1-1Zm35 1v-1 1Zm-39 0Zm31 1h1l-1-1v1Zm-32 0-1-1v1h1Zm16 0v-1Zm-14 0v1l1-1h-1Zm-6 1v-1h-1v1h1Zm24 2v-2h1v2Zm10-2v-1 1Zm2 0h1-1Zm8 1h-1l-1-1v-1l2 2Zm-29-1Zm3 0Zm16 1-2-1 2 2v-1Zm-25-1v1l1 1a2 2 0 0 1 0-1v-1h-1Zm-6 2h1v-1l-2 1h1Zm12 1v-2 2Zm4-1h1v-1h-1v1Zm7 1-1-1 1-1v3-1Zm-13 1v-2h-2v1l1 2 1-1Zm4-2 1 1h1-1l-1-1Zm25 0 1 1h-2v-1h1Zm-36 1h-1Zm10 2 2 1 1-1-2-2-1 1v1Zm-9-1v-1 1Zm0 1Zm7 1h1l-1-1v1Zm-8 0v-1l-1 1Zm7 2v-1l-1-1h-1a1 1 0 0 1-1 0h-1v4h1v-1l1-1h2Zm-8 0-1-2-1 1 2 1Zm33-1v-1 1Zm-22 0h1l-1-1v1Zm2 0Zm17 1 1-1-1 1Zm-11 1v-2h-1v2h1Zm2-1h-1 1Zm-18 1-1-1v1a1 1 0 0 0 1 0Zm36 1v-2l1 2-1 1v-1Zm-23-1h-1 1Zm-6 0Zm24 1Zm-22 1Zm15 0 1 1Zm-8 2 1-1h-1v1Zm9-1Zm-23 0 1 1v-1h-1Zm18 3v1h1l-1-1Zm8 1-1 1v1h1l1-1-1-1Zm-3 1h1-1Zm7 0 1 1v-1h-1Zm-7 1 1 1v-1h-1Zm2 1v1l1 1h1v-1l-1-1h-1Zm-16 1h-1 1Zm12 4-1 1h1v-1Zm-20 1Zm15 3v1-1Zm4 1v1l1-1h-1Zm5 1h1l-1-1v1Zm-27 0Zm16 1v-1 1Zm-14 3-1-1 1 1Zm-3 9 1-1h-1Zm26 2v1-1Zm6 4Z" />
</svg>